<svg xmlns="http://www.w3.org/2000/svg" width="70" height="70" viewBox="0 0 70 70">
  <g id="Archetypes" transform="translate(-0.4)">
    <rect id="Rectangle_68" data-name="Rectangle 68" width="6" height="6" transform="translate(32.4)" fill="#95297a"/>
    <rect id="Rectangle_69" data-name="Rectangle 69" width="6" height="5" transform="translate(32.4 65)" fill="#c52b6f"/>
    <rect id="Rectangle_70" data-name="Rectangle 70" width="5.651" height="5.651" transform="translate(19.325 3.742) rotate(-22.377)" fill="#9e2a78"/>
    <rect id="Rectangle_71" data-name="Rectangle 71" width="5.651" height="5.651" transform="translate(44.093 63.82) rotate(-22.377)" fill="#ba2b71"/>
    <rect id="Rectangle_72" data-name="Rectangle 72" width="5.651" height="5.651" transform="translate(46.306 1.589) rotate(22.482)" fill="#8d297c"/>
    <rect id="Rectangle_73" data-name="Rectangle 73" width="5.651" height="5.651" transform="translate(21.425 61.67) rotate(22.482)" fill="#cb2c6d"/>
    <rect id="Rectangle_74" data-name="Rectangle 74" width="6" height="5" transform="translate(70.4 32) rotate(90)" fill="#96297a"/>
    <rect id="Rectangle_75" data-name="Rectangle 75" width="6" height="6" transform="translate(6.4 32) rotate(90)" fill="#c42b6f"/>
    <rect id="Rectangle_76" data-name="Rectangle 76" width="5.651" height="5.651" transform="translate(62.379 58.262) rotate(134.959)" fill="#ab2a75"/>
    <rect id="Rectangle_77" data-name="Rectangle 77" width="5.651" height="5.651" transform="translate(16.407 12.377) rotate(134.959)" fill="#ac2a75"/>
    <rect id="Rectangle_78" data-name="Rectangle 78" width="5.651" height="5.651" transform="matrix(0.382, 0.924, -0.924, 0.382, 66.972, 19.218)" fill="#8d297c"/>
    <rect id="Rectangle_79" data-name="Rectangle 79" width="5.651" height="5.651" transform="matrix(0.382, 0.924, -0.924, 0.382, 6.886, 44.038)" fill="#cc2c6d"/>
    <rect id="Rectangle_80" data-name="Rectangle 80" width="5.651" height="5.651" transform="translate(69.092 46.241) rotate(112.552)" fill="#9e2a78"/>
    <rect id="Rectangle_81" data-name="Rectangle 81" width="5.651" height="5.651" transform="translate(9.092 21.348) rotate(112.552)" fill="#b92b72"/>
    <rect id="Rectangle_82" data-name="Rectangle 82" width="5.651" height="5.651" transform="translate(58.323 8.321) rotate(44.943)" fill="#8b297c"/>
    <rect id="Rectangle_83" data-name="Rectangle 83" width="5.651" height="5.651" transform="translate(12.467 54.326) rotate(44.943)" fill="#cf2c6c"/>
  </g>
</svg>
