<svg xmlns="http://www.w3.org/2000/svg" width="80.674" height="77.69" viewBox="0 0 80.674 77.69">
  <g id="BrandTarget_dnd" transform="translate(24.836 8.832)">
    <g id="Artcards" transform="translate(-24.83 -11.73)">
      <path id="Path_127" data-name="Path 127" d="M57.96,48.162,29.423,65.952a1.619,1.619,0,0,1-2.262-.566L3.869,26.824a1.722,1.722,0,0,1,.514-2.314L32.971,6.771a1.619,1.619,0,0,1,2.262.566L58.525,45.9A1.664,1.664,0,0,1,57.96,48.162Z" fill="#fff" stroke="#7b2880" stroke-miterlimit="10" stroke-width="7.243"/>
      <path id="Path_128" data-name="Path 128" d="M79.407,67.861H46.345A1.624,1.624,0,0,1,44.7,66.215V20.145A1.624,1.624,0,0,1,46.345,18.5H79.407a1.624,1.624,0,0,1,1.645,1.645V66.164A1.7,1.7,0,0,1,79.407,67.861Z" transform="translate(-19.956 -5.816)" fill="#fff" stroke="#7b2880" stroke-miterlimit="10" stroke-width="7.262"/>
      <path id="Path_129" data-name="Path 129" d="M81.36,86.756l-31.622-10.9A1.7,1.7,0,0,1,48.71,73.7l15.22-45.4a1.707,1.707,0,0,1,2.16-1.08l31.57,10.9a1.7,1.7,0,0,1,1.028,2.16l-15.22,45.4A1.614,1.614,0,0,1,81.36,86.756Z" transform="translate(-21.857 -10.006)" fill="#fff" stroke="#7b2880" stroke-miterlimit="10" stroke-width="7.452"/>
      <g id="Group_33" data-name="Group 33" transform="translate(36.461 29.664)">
        <g id="Group_30" data-name="Group 30">
          <g id="Group_29" data-name="Group 29">
            <path id="Path_130" data-name="Path 130" d="M99.578,51.923C98.55,51,96.6,51.666,93.46,54.082a65.159,65.159,0,0,0-8.9,8.638c-4.525,5.193-7.918,10.232-9,13.266l-.617-.154a4.774,4.774,0,0,0-3.7,1.131,5.8,5.8,0,0,0-1.954,3.291,9.224,9.224,0,0,1-1.645,3.7.812.812,0,0,0,.154,1.131,5.851,5.851,0,0,0,4.165,1.285,7.679,7.679,0,0,0,4.216-1.7,10.643,10.643,0,0,0,1.131-1.131,5.234,5.234,0,0,0,1.131-4.422c2.828-1.234,7.61-5.4,12.34-10.8a65.9,65.9,0,0,0,7.4-9.975C100.2,54.9,100.658,52.9,99.578,51.923Zm-23.5,30.593a6.353,6.353,0,0,1-.874.874,5.271,5.271,0,0,1-5.759.823,10.74,10.74,0,0,0,1.491-3.651h0v-.051a4,4,0,0,1,1.337-2.262,3.236,3.236,0,0,1,2.468-.771,2.466,2.466,0,0,1,1.7,1.028A3.444,3.444,0,0,1,76.081,82.516Zm1.748-4.885a2.825,2.825,0,0,0-.771-.874,18.328,18.328,0,0,1,2.16-4.268l2.674,2.417A18.926,18.926,0,0,1,77.829,77.631Zm5.3-3.8L80.091,71.1c.463-.668.926-1.388,1.491-2.057l3.394,3.085Q83.973,73.055,83.125,73.826ZM96.6,57.887A63.554,63.554,0,0,1,89.6,67.194c-1.183,1.388-2.365,2.622-3.5,3.753l-3.548-3.239c.977-1.285,2.108-2.622,3.239-3.959a67.145,67.145,0,0,1,8.278-8.124c3.085-2.468,4.165-2.519,4.422-2.519C98.55,53.362,98.6,54.494,96.6,57.887Z" transform="translate(-67.488 -51.523)" fill="#7b2880"/>
          </g>
        </g>
        <g id="Group_32" data-name="Group 32" transform="translate(4.692 28.751)">
          <g id="Group_31" data-name="Group 31">
            <path id="Path_131" data-name="Path 131" d="M79.742,107.523a.83.83,0,0,0-1.08.36.18.18,0,0,1-.051.1,4.747,4.747,0,0,1-.463.411,2.561,2.561,0,0,1-.977.514.82.82,0,0,0,.309,1.594.309.309,0,0,0,.206-.051,4.754,4.754,0,0,0,1.491-.823,7.376,7.376,0,0,0,.668-.668,2.084,2.084,0,0,0,.257-.463A.728.728,0,0,0,79.742,107.523Z" transform="translate(-76.612 -107.441)" fill="#7b2880"/>
          </g>
        </g>
      </g>
    </g>
  </g>
</svg>
