<svg xmlns="http://www.w3.org/2000/svg" width="173.763" height="121.805" viewBox="0 0 173.763 121.805">
  <g id="BrandTarget_dnd" transform="translate(35.307 6.198)">
    <g id="Group_9" data-name="Group 9" transform="translate(-35.206 -5.202)">
      <g id="brandTarget_click_1_" transform="translate(55.261 0)">
        <g id="g5084_2_" transform="translate(0)">
          <circle id="Ellipse_3" data-name="Ellipse 3" cx="38.605" cy="38.605" r="38.605" transform="translate(20.265 20.651)" fill="#54febd"/>
          <path id="path17_2_" d="M133.77,21.879C149.667,46.16,147.4,79,125.735,99.439a57.791,57.791,0,0,1-76.163,3.843M37.344,90.18A60.441,60.441,0,0,1,45.38,12.271,57.84,57.84,0,0,1,121.717,8.6" transform="translate(-26.715 4.034)" fill="none" stroke="#000" stroke-linecap="round" stroke-linejoin="round" stroke-width="1.975"/>
          <ellipse id="circle19_2_" cx="35.81" cy="36.509" rx="35.81" ry="36.509" transform="translate(23.032 23.467)" fill="none" stroke="#000" stroke-width="1.975"/>
          <line id="line21_2_" y2="95.203" transform="translate(58.842 12.287)" fill="none" stroke="#000" stroke-linecap="round" stroke-linejoin="round" stroke-width="1.975"/>
          <line id="line23_2_" x2="93.456" transform="translate(12.027 59.976)" fill="none" stroke="#000" stroke-linecap="round" stroke-linejoin="round" stroke-width="1.975"/>
        </g>
      </g>
      <g id="Group_8" data-name="Group 8" transform="translate(0 3.885)">
        <g id="Group_5" data-name="Group 5" transform="translate(0.53 49.098)">
          <path id="Path_5" data-name="Path 5" d="M13.88,57.954H4.622A3.759,3.759,0,0,1,.6,53.936V50.093c0-.7.349-.873.7-.873.524,0,.7.349.7.873v3.843a2.39,2.39,0,0,0,2.62,2.62H23.138a2.39,2.39,0,0,0,2.62-2.62V35.42a2.39,2.39,0,0,0-2.62-2.62H19.645a.8.8,0,0,1-.873-.7c0-.524.349-.7,1.048-.7h3.668a3.668,3.668,0,0,1,3.843,3.843V54.286a3.766,3.766,0,0,1-3.843,3.843c-3.319-.175-6.463-.175-9.608-.175Z" transform="translate(-0.25 -31.226)" stroke="#000" stroke-width="1"/>
          <path id="Path_6" data-name="Path 6" d="M13.853,31.475h9.258a3.759,3.759,0,0,1,4.018,4.018v3.843c0,.7-.349.873-.7.873-.524,0-.7-.349-.7-.873V35.493a2.39,2.39,0,0,0-2.62-2.62H4.594a2.39,2.39,0,0,0-2.62,2.62V54.009a2.39,2.39,0,0,0,2.62,2.62H8.088a.8.8,0,0,1,.873.7c0,.524-.349.7-1.048.7H4.245A3.668,3.668,0,0,1,.4,54.184V35.143A3.766,3.766,0,0,1,4.245,31.3C7.564,31.3,10.708,31.475,13.853,31.475Z" transform="translate(-0.397 -31.3)" stroke="#000" stroke-width="1"/>
        </g>
        <g id="Group_6" data-name="Group 6" transform="translate(0.53 85.083)">
          <path id="Path_7" data-name="Path 7" d="M13.88,78.654H4.622A3.759,3.759,0,0,1,.6,74.636V70.793c0-.7.349-.873.7-.873.524,0,.7.349.7.873v3.843a2.39,2.39,0,0,0,2.62,2.62H23.138a2.39,2.39,0,0,0,2.62-2.62V56.12a2.39,2.39,0,0,0-2.62-2.62H19.645a.8.8,0,0,1-.873-.7c0-.524.349-.7,1.048-.7h3.668a3.668,3.668,0,0,1,3.843,3.843V74.986a3.766,3.766,0,0,1-3.843,3.843c-3.319-.175-6.463-.175-9.608-.175Z" transform="translate(-0.25 -51.752)" stroke="#000" stroke-width="1"/>
          <path id="Path_8" data-name="Path 8" d="M13.853,52.075h9.258a3.759,3.759,0,0,1,4.018,4.018v3.843c0,.7-.349.873-.7.873-.524,0-.7-.349-.7-.873V56.093a2.39,2.39,0,0,0-2.62-2.62H4.594a2.39,2.39,0,0,0-2.62,2.62V74.609a2.39,2.39,0,0,0,2.62,2.62H8.088a.8.8,0,0,1,.873.7c0,.524-.349.7-1.048.7H4.245A3.668,3.668,0,0,1,.4,74.784V55.743A3.766,3.766,0,0,1,4.245,51.9c3.319.175,6.463.175,9.608.175Z" transform="translate(-0.397 -51.9)" stroke="#000" stroke-width="1"/>
        </g>
        <g id="Group_7" data-name="Group 7">
          <path id="Path_9" data-name="Path 9" d="M21.78,38.154H12.522A3.759,3.759,0,0,1,8.5,34.136V30.293c0-.7.349-.873.7-.873.524,0,.7.349.7.873v3.843a2.39,2.39,0,0,0,2.62,2.62H31.038a2.39,2.39,0,0,0,2.62-2.62V15.62A2.39,2.39,0,0,0,31.038,13H27.545a.8.8,0,0,1-.873-.7c0-.524.349-.7,1.048-.7h3.668a3.668,3.668,0,0,1,3.843,3.843V34.486a3.766,3.766,0,0,1-3.843,3.843c-3.319-.175-6.463-.175-9.608-.175Z" transform="translate(6.179 3.084)" stroke="#000" stroke-width="1"/>
          <path id="Path_10" data-name="Path 10" d="M8.647,21.759a2.348,2.348,0,0,0,.7,2.795A60.681,60.681,0,0,0,15.111,27.7a6.916,6.916,0,0,0,5.59,0,7.2,7.2,0,0,0,4.018-9.608A18.407,18.407,0,0,0,20,11.278a1.324,1.324,0,0,0-1.747-.175q-.786.524-1.048,0a.863.863,0,0,1,.175-1.223,2.657,2.657,0,0,1,3.494,0,18.27,18.27,0,0,1,5.59,8.385,8.785,8.785,0,0,1-6.638,11.18A7.943,7.943,0,0,1,13.539,28.4c-1.4-.873-2.97-1.747-4.367-2.446A3.752,3.752,0,0,1,7.6,20.885c.175-.349,0-.349-.175-.524a3.944,3.944,0,0,1-1.4-1.922A2.833,2.833,0,0,1,7.25,15.47a2.633,2.633,0,0,1,3.144.349c1.048,1.048,2.1,2.1,3.144,2.97a.741.741,0,0,1-1.048,1.048L9.7,17.042a1.509,1.509,0,0,0-1.048-.524.8.8,0,0,0-.873.7,1.359,1.359,0,0,0,.349,1.4l2.62,2.62,1.048,1.048a.741.741,0,1,1-1.048,1.048A10.888,10.888,0,0,1,8.647,21.759Z" transform="translate(4.289 1.312)"/>
          <path id="Path_11" data-name="Path 11" d="M11.854,10a2.62,2.62,0,0,1,1.922.7L16.57,13.5c.349.349.349.873,0,1.048-.349.349-.7.349-1.048-.175l-2.446-2.446c-.7-.7-1.048-.7-1.747-.175-.349.349-.873.349-1.048,0-.349-.349-.175-.7.175-1.048C10.631,10.176,11.155,10,11.854,10Z" transform="translate(7.372 1.889)"/>
          <path id="Path_12" data-name="Path 12" d="M10.1,11.205a2.62,2.62,0,0,1,1.922.7L14.47,14.35c.349.349.349.873,0,1.048a.655.655,0,0,1-1.048,0l-2.271-2.271a1.371,1.371,0,0,0-1.922,0c-.349.349-.7.175-1.048,0-.349-.349-.175-.7.175-1.048a1.775,1.775,0,0,1,1.747-.873Z" transform="translate(5.803 2.781)"/>
          <path id="Path_13" data-name="Path 13" d="M16.5,6.532c0,.7-.175,1.048-.7,1.048s-.7-.349-.7-.873a2.426,2.426,0,0,0-.873-1.747.823.823,0,0,1-.175-1.048.655.655,0,0,1,1.048,0,3.911,3.911,0,0,1,1.4,2.62Z" transform="translate(10.242 -2.852)" stroke="#000" stroke-width="0.2"/>
          <path id="Path_14" data-name="Path 14" d="M.8,15.9a.751.751,0,0,1,.7.7,2.426,2.426,0,0,0,.873,1.747.655.655,0,0,1,0,1.048.655.655,0,0,1-1.048,0A3.476,3.476,0,0,1,.1,16.6a.751.751,0,0,1,.7-.7Z" transform="translate(-0.091 6.297)" stroke="#000" stroke-width="0.2"/>
          <path id="Path_15" data-name="Path 15" d="M13,4.7H11.773A.8.8,0,0,1,10.9,4a.8.8,0,0,1,.873-.7h2.62a.8.8,0,0,1,.873.7.8.8,0,0,1-.873.7Z" transform="translate(7.976 -3.115)" stroke="#000" stroke-width="0.2"/>
          <path id="Path_16" data-name="Path 16" d="M.1,6.718A3.7,3.7,0,0,1,.8,4.272a1.158,1.158,0,0,1,1.223-.349A1.034,1.034,0,0,1,2.2,5.145a2.818,2.818,0,0,0-.524,1.572v.524A.961.961,0,0,1,.8,7.766a.639.639,0,0,1-.7-.7Z" transform="translate(-0.094 -2.688)" stroke="#000" stroke-width="0.2"/>
          <path id="Path_17" data-name="Path 17" d="M1.6,12.071v1.223a.8.8,0,0,1-.7.873.8.8,0,0,1-.7-.873v-2.62A.8.8,0,0,1,.9,9.8a.8.8,0,0,1,.7.873Z" transform="translate(-0.017 1.741)" stroke="#000" stroke-width="0.2"/>
          <path id="Path_18" data-name="Path 18" d="M1.673,8.9V10.12a.8.8,0,0,1-.7.873A.825.825,0,0,1,.1,10.12V7.5a.639.639,0,0,1,.7-.7c.524,0,.7.349.873.873Z" transform="translate(-0.091 -0.501)" stroke="#000" stroke-width="0.2"/>
          <path id="Path_19" data-name="Path 19" d="M.1,15V13.6a.639.639,0,0,1,.7-.7.751.751,0,0,1,.7.7v2.62a.639.639,0,0,1-.7.7.8.8,0,0,1-.7-.873c0-.175,0-.7,0-1.048Z" transform="translate(-0.092 4.055)" stroke="#000" stroke-width="0.2"/>
          <path id="Path_20" data-name="Path 20" d="M4,3.205H5.219a.639.639,0,0,1,.7.7.751.751,0,0,1-.7.7H2.6c-.524.175-.7-.175-.7-.524a.751.751,0,0,1,.7-.7A3.4,3.4,0,0,1,4,3.205Z" transform="translate(1.254 -3.193)" stroke="#000" stroke-width="0.2"/>
          <path id="Path_21" data-name="Path 21" d="M6.9,4.7H5.673A.8.8,0,0,1,4.8,4a.8.8,0,0,1,.873-.7h2.62c.524,0,.873.349.7.7a.8.8,0,0,1-.873.7Z" transform="translate(3.42 -3.115)" stroke="#000" stroke-width="0.2"/>
          <path id="Path_22" data-name="Path 22" d="M4.2,19.1H2.973a.716.716,0,1,1,0-1.4h2.62a.8.8,0,0,1,.873.7c0,.524-.349.7-.873.7Z" transform="translate(1.404 7.634)" stroke="#000" stroke-width="0.2"/>
          <path id="Path_23" data-name="Path 23" d="M9.923,3.2h1.4a.639.639,0,0,1,.7.7.751.751,0,0,1-.7.7H8.7A.639.639,0,0,1,8,3.9a.751.751,0,0,1,.7-.7Z" transform="translate(5.809 -3.189)" stroke="#000" stroke-width="0.2"/>
          <path id="Path_24" data-name="Path 24" d="M16,8.616V9.838a.8.8,0,0,1-.7.873c-.524,0-.7-.349-.7-.873V7.218c0-.524.349-.873.7-.7.524,0,.7.349.7.873Z" transform="translate(10.739 -0.743)" stroke="#000" stroke-width="0.2"/>
        </g>
      </g>
    </g>
  </g>
</svg>
