<svg id="carousel_brandRating" xmlns="http://www.w3.org/2000/svg" viewBox="0 0 97.6 89.978">
  <defs>
    <style>
      .cls-1 {
        fill: #fbad30;
      }
    </style>
  </defs>
  <g id="Group_10" data-name="Group 10">
    <path id="Path_33" data-name="Path 33" d="M22.6,67.6V0H75.1V67.6Zm48.7-3.8V3.8h-45v60Z"/>
    <path id="Path_34" data-name="Path 34" d="M90.2,63.8c-2.3-.6-4.4-1.1-6.6-1.6-1.3-.3-2.6-.6-3.8-1-.3-.1-.8-.4-.8-.7-.1-1.1,0-2.2,0-3.4,2.5.7,4.9,1.3,7.4,2V8.4c-2.4.6-4.9,1.3-7.4,2V7a.822.822,0,0,1,.4-.6L90.2,3.7Z"/>
    <path id="Path_35" data-name="Path 35" d="M7.5,3.7c1.9.5,3.7.9,5.5,1.4,1.6.4,3.3.8,4.9,1.2.3.1.8.5.8.8.1,1,0,2,0,3.3-2.5-.7-5-1.3-7.5-2V59.1c2.5-.6,4.9-1.3,7.5-2v3.4a.822.822,0,0,1-.4.6L7.5,63.8Q7.5,33.8,7.5,3.7Z"/>
    <path id="Path_36" data-name="Path 36" d="M0,3.8H3.7v60H0Z"/>
    <path id="Path_37" data-name="Path 37" d="M94,3.8h3.6v60H94Z"/>
  </g>
  <g id="Group_11" data-name="Group 11">
    <path id="Path_38" data-name="Path 38" class="cls-1" d="M66.9,76.1c-.4,1.1-.7,2-1,2.9A1.75,1.75,0,0,1,64,80.4a14.154,14.154,0,0,0-2.9.2c.9.6,1.7,1.2,2.6,1.8a1.72,1.72,0,0,1,.8,2.1c-.4,1.4-.6,2.7-1,4.1,0,.1-.4.3-.5.3-.3-.1-.8-.3-.8-.6a2.879,2.879,0,0,1,.1-1.3c.2-1,.5-2.1.8-3.1-1-.7-2-1.3-2.9-2a3.177,3.177,0,0,1-1.1-1.8c.1-.9,1.1-1,1.9-1.1,1.1-.1,2.3-.1,3.5-.2.3-.7.5-1.5.8-2.3a14.167,14.167,0,0,1,.8-1.8c.6-.9,1.3-1,1.9,0a16.386,16.386,0,0,1,1.4,3,1.507,1.507,0,0,0,1.5,1.2,9.185,9.185,0,0,1,2.8.5c1.4.4,1.6,1.3.4,2.2a27.031,27.031,0,0,1-3.3,2.2c.4.9.7,1.9,1.1,2.9a7.494,7.494,0,0,1,.5,1.6c.1.4.1,1.1-.2,1.3a1.7,1.7,0,0,1-1.4,0,37.912,37.912,0,0,1-3.4-2,3.7,3.7,0,0,0-1.1-.5c-.1-1.2.3-1.5,1.4-1,.9.4,1.7,1,2.8,1.5-.4-1.1-.7-2-1-2.9-.4-1.3-.3-1.6.8-2.4.7-.5,1.5-1,2.4-1.6-1.2-.2-2.1-.4-3-.5a1.635,1.635,0,0,1-1.4-1.1A11.893,11.893,0,0,1,66.9,76.1Z"/>
    <path id="Path_39" data-name="Path 39" class="cls-1" d="M25.3,80.6c.9.6,1.8,1.2,2.6,1.8a1.658,1.658,0,0,1,.8,2.1c-.3,1.1-.6,2.1-.9,3.2,0,.1-.2.3-.1.4.1.4.1.8-.5.8-.5,0-1-.1-.9-.7a12.5,12.5,0,0,1,.3-1.9c.2-.8.7-1.7.5-2.3s-1.2-.9-1.9-1.4a9.337,9.337,0,0,1-1.5-1.3c-.8-.9-.6-1.8.6-2.1a12.716,12.716,0,0,1,3.4-.2,1.033,1.033,0,0,0,1.2-.9A19.778,19.778,0,0,1,30.1,75c.6-1.2,1.4-1.2,2.1-.1A17.3,17.3,0,0,1,33.6,78a1.292,1.292,0,0,0,1.2.9,15.469,15.469,0,0,1,3.1.6c1.2.4,1.4,1.2.4,2a29.328,29.328,0,0,1-3.4,2.4c.5,1.2,1,2.5,1.4,3.7.2.7.7,1.5,0,2.1-.7.5-1.4,0-2-.4-1-.6-1.9-1.3-2.9-2a2.509,2.509,0,0,0-1-.1c.1-.4,0-.9.2-1.1a1.627,1.627,0,0,1,1.2-.1c.9.4,1.8,1,2.9,1.6-.3-.8-.5-1.5-.8-2.2-.7-2.1-.7-2.3,1.3-3.5.5-.3,1.1-.7,1.8-1.1a19.159,19.159,0,0,0-3-.4,1.615,1.615,0,0,1-1.5-1.2c-.3-.9-.7-1.8-1.1-2.9-.4,1-.7,1.9-1,2.7a1.845,1.845,0,0,1-2,1.5H25.5C25.3,80.4,25.3,80.5,25.3,80.6Z"/>
    <path id="Path_40" data-name="Path 40" class="cls-1" d="M43,80c.9.6,1.8,1.2,2.6,1.8a1.658,1.658,0,0,1,.8,2.1c-.3,1.1-.6,2.1-.9,3.2,0,.1-.2.3-.1.4.1.4.1.8-.5.8-.5,0-1-.1-.9-.7a12.5,12.5,0,0,1,.3-1.9c.2-.8.7-1.7.5-2.3s-1.2-.9-1.9-1.4a9.337,9.337,0,0,1-1.5-1.3c-.8-.9-.6-1.8.6-2.1a12.716,12.716,0,0,1,3.4-.2,1.033,1.033,0,0,0,1.2-.9,19.778,19.778,0,0,1,1.2-3.1c.6-1.2,1.4-1.2,2.1-.1a17.3,17.3,0,0,1,1.4,3.1,1.292,1.292,0,0,0,1.2.9,15.469,15.469,0,0,1,3.1.6c1.2.4,1.4,1.2.4,2a29.328,29.328,0,0,1-3.4,2.4c.5,1.2,1,2.5,1.4,3.7.2.7.7,1.5,0,2.1-.7.5-1.4,0-2-.4-1-.6-1.9-1.3-2.9-2a2.509,2.509,0,0,0-1-.1c.1-.4,0-.9.2-1.1a1.627,1.627,0,0,1,1.2-.1c.9.4,1.8,1,2.9,1.6-.3-.8-.5-1.5-.8-2.2-.7-2.1-.7-2.3,1.3-3.5.5-.3,1.1-.7,1.8-1.1a19.159,19.159,0,0,0-3-.4,1.615,1.615,0,0,1-1.5-1.2c-.3-.9-.7-1.8-1.1-2.9-.4,1-.7,1.9-1,2.7a1.845,1.845,0,0,1-2,1.5H43.2C43.1,79.9,43,79.9,43,80Z"/>
    <path id="Path_41" data-name="Path 41" class="cls-1" d="M15,76.9c-.4,1.1-.7,1.9-1,2.8a1.521,1.521,0,0,1-1.6,1.2c-1,0-1.9.1-3.1.2a24.956,24.956,0,0,0,2.4,1.6,1.929,1.929,0,0,1,.9,2.4c-.3.9-.6,1.9-.9,2.9a3.352,3.352,0,0,0,0,1c-1.3.2-1.6,0-1.4-1.2a6.028,6.028,0,0,1,.6-2.3c.5-1,.1-1.6-.8-2.1a12.822,12.822,0,0,1-2.2-1.7c-.9-.9-.7-1.8.6-2.1a16.279,16.279,0,0,1,3.1-.3A1.244,1.244,0,0,0,13,78.2a21.522,21.522,0,0,1,1-2.7c.6-1.1,1.4-1.2,2-.1a16.386,16.386,0,0,1,1.4,3,1.063,1.063,0,0,0,.9.8,15.469,15.469,0,0,1,3.1.6c1.1.4,1.3,1.2.4,2-1,.8-2.1,1.5-3.2,2.3l.9,2.4a2.836,2.836,0,0,1,.4,1.3,3.006,3.006,0,0,1-.1,1.9c-.5.6-1.2.1-1.8-.3-1-.6-2-1.3-2.9-1.9a3.178,3.178,0,0,0-.9-.3c-.2-1.2.2-1.6,1.4-1.1.8.4,1.6.9,2.6,1.4-.4-1.1-.6-2-1-3a1.463,1.463,0,0,1,.6-1.9c.8-.5,1.5-1,2.4-1.6-1-.1-1.7-.3-2.5-.4a1.921,1.921,0,0,1-1.8-1.4C15.7,78.7,15.4,77.9,15,76.9Z"/>
    <path id="Path_42" data-name="Path 42" class="cls-1" d="M86.7,84.1c.4,1.2.9,2.3,1.3,3.4a4.508,4.508,0,0,1,.3,1.1,1.8,1.8,0,0,1-.3,1.1,1.271,1.271,0,0,1-1.2,0c-1.1-.6-2.2-1.3-3.3-1.9-.4-.2-.8-.4-1.3-.7.1-.3.1-.8.3-1a1.65,1.65,0,0,1,1.2,0c.8.4,1.6.9,2.6,1.4-.3-1-.7-1.8-.9-2.6-.4-1.4-.3-1.7.9-2.5.6-.4,1.3-.8,2.2-1.4-1-.1-1.7-.3-2.5-.4a1.921,1.921,0,0,1-1.8-1.4,22.429,22.429,0,0,0-1-2.6c-.4,1.1-.7,2-1,2.9a1.426,1.426,0,0,1-1.5,1.1c-1,0-1.9.1-3.2.2,1,.7,1.7,1.2,2.5,1.7a1.8,1.8,0,0,1,.8,2.3c-.3,1-.6,2-.9,2.9a2.719,2.719,0,0,0,0,.9c-1.2.4-1.6.1-1.4-1.1a26.807,26.807,0,0,1,.7-2.7c.2-.6,0-.9-.5-1.3a23.48,23.48,0,0,1-2.5-1.9,1.64,1.64,0,0,1-.6-1.4,2.072,2.072,0,0,1,1.3-.9,15.138,15.138,0,0,1,3-.2c.6,0,.9-.2,1-.7a18.77,18.77,0,0,1,1.2-3c.6-1.2,1.4-1.2,2.1,0,.5,1,.9,2,1.4,3a1.6,1.6,0,0,0,.9.7,27.972,27.972,0,0,1,2.8.6,1.758,1.758,0,0,1,1.2,1c.1.4-.4,1-.8,1.3C88.7,82.8,87.7,83.4,86.7,84.1Z"/>
  </g>
</svg>
