<svg id="Consumption_report" xmlns="http://www.w3.org/2000/svg" width="40" height="40" viewBox="0 0 40 40">
  <g id="Rectangle_2136" data-name="Rectangle 2136" fill="#fff" stroke="#9d9d9d" stroke-width="1">
    <rect width="40" height="40" rx="6" stroke="none"/>
    <rect x="0.5" y="0.5" width="39" height="39" rx="5.5" fill="none"/>
  </g>
  <path id="report" d="M144.095,68.7c0-.073.005-.145.005-.215a2.431,2.431,0,0,0-.619-1.6,2.4,2.4,0,0,0-1.788-.776h-.805v-.125a.457.457,0,0,0,.01-.1,2.145,2.145,0,0,0-2.134-2.106c-.2,0-.407.005-.611.005H126.845c-.2,0-.4-.008-.6-.005a2.152,2.152,0,0,0-2.139,2.109c-.005.511-.005,1.017-.005,1.528V81.723a2.162,2.162,0,0,0,.778,1.721,2.2,2.2,0,0,0,1.369.486c.066,0,.131-.005.2-.005h.356a3.785,3.785,0,0,0,.1,1.157,2.428,2.428,0,0,0,1.611,1.6,2.666,2.666,0,0,0,.77.1h12.049l.343,0a2.476,2.476,0,0,0,1.222-.311,2.4,2.4,0,0,0,1.2-1.931c.008-.08,0-.163,0-.243Zm-8.711,3.148a.758.758,0,0,1,1.515,0v4.2a.758.758,0,0,1-1.515,0ZM131.748,69.1a.758.758,0,0,1,1.515,0v6.95a.758.758,0,0,1-1.515,0Zm-3.636,2.084a.758.758,0,0,1,1.515,0v4.864a.758.758,0,0,1-1.515,0Zm-1.321,7.829a.763.763,0,0,1,.758-.751l.018,0c.4-.008.8,0,1.2,0h8.693a.751.751,0,1,1,0,1.5h-9.91A.769.769,0,0,1,126.792,79.01Zm15.458,6.084s0,0,0,0a1.847,1.847,0,0,1-.189.11,1.532,1.532,0,0,1-.24.063c-.129.008-.26,0-.391,0H130.677c-.492,0-.985,0-1.477,0-.038,0-.078,0-.116-.005a1.486,1.486,0,0,1-.23-.063,1.762,1.762,0,0,1-.177-.1l-.013-.008c-.03-.028-.061-.053-.088-.08s-.053-.058-.078-.085l.038.053c.04.063-.134-.155-.048-.063l.008.01a1.725,1.725,0,0,1-.109-.188,1.666,1.666,0,0,1-.071-.273c0,.05.008.1.013.145-.01-.068-.013-.133-.023-.2l.008.053c-.013-.18-.01-.366-.008-.549h10.282c.058,0,.116.005.172.005a2.115,2.115,0,0,0,2.121-2.222V67.617c.311,0,.631-.023.942,0a.861.861,0,0,1,.4.163.044.044,0,0,1,.013.01c.03.025.061.053.088.08s.053.058.078.085a0,0,0,0,0,0,0,1.4,1.4,0,0,1,.109.188,1.651,1.651,0,0,1,.056.19c.015.175,0,.356,0,.531v13.64c0,.631.008,1.26.005,1.888a1.3,1.3,0,0,1-.005.14,1.574,1.574,0,0,1-.061.213,1.392,1.392,0,0,1-.1.168l-.008.013c-.028.03-.053.06-.081.088A.746.746,0,0,1,142.249,85.094Z" transform="translate(-114.544 -55.298)" fill="#9d9d9d"/>
</svg>
