<svg xmlns="http://www.w3.org/2000/svg" width="100.98" height="70.635" viewBox="0 0 100.98 70.635">
  <g id="Container_exclusive_dnd" transform="translate(-228.825 -220.466)">
    <g id="Group_131" transform="translate(228.981 221)">
      <g id="Rectangle_10" transform="translate(0 41.989)">
        <rect id="Rectangle_35" data-name="Rectangle 35" width="47.447" height="28.112" fill="#fff"/>
        <rect id="Rectangle_36" data-name="Rectangle 36" width="43.888" height="24.554" transform="translate(1.779 1.779)" fill="none" stroke="#000" stroke-width="3"/>
      </g>
      <g id="Rectangle_121" transform="translate(53.378 41.989)">
        <rect id="Rectangle_37" data-name="Rectangle 37" width="47.447" height="28.112" fill="#fff"/>
        <rect id="Rectangle_38" data-name="Rectangle 38" width="43.888" height="24.554" transform="translate(1.779 1.779)" fill="none" stroke="#000" stroke-width="3"/>
      </g>
      <rect id="Rectangle_39" data-name="Rectangle 39" width="46.854" height="30.603" transform="translate(0.378)" fill="none" stroke="#fe8354" stroke-width="1.068"/>
      <g id="Group_1" transform="translate(19.891 3.337)">
        <rect id="Rectangle_11" width="1.068" height="8.185" transform="translate(2.848 0.802)" fill="#fe8354"/>
        <rect id="Rectangle_12" width="4.626" height="1.068" transform="translate(0 3.271) rotate(-45)" fill="#fe8354"/>
        <rect id="Rectangle_13" width="1.068" height="4.626" transform="translate(2.729 0.776) rotate(-45)" fill="#fe8354"/>
      </g>
      <g id="Group_1-2" transform="translate(26.591 27.055) rotate(180)">
        <rect id="Rectangle_11-2" width="1.068" height="8.185" transform="translate(2.848 0.802)" fill="#fe8354"/>
        <rect id="Rectangle_12-2" width="4.626" height="1.068" transform="translate(0 3.271) rotate(-45)" fill="#fe8354"/>
        <rect id="Rectangle_13-2" width="1.068" height="4.626" transform="translate(2.729 0.776) rotate(-45)" fill="#fe8354"/>
      </g>
      <g id="Group_1-3" transform="translate(35.18 11.763) rotate(90)">
        <rect id="Rectangle_11-3" width="8.185" height="1.068" transform="translate(4.016 0.931) rotate(90)" fill="#fe8354"/>
        <rect id="Rectangle_12-3" width="1.068" height="4.626" transform="translate(3.271 0.183) rotate(45)" fill="#fe8354"/>
        <rect id="Rectangle_13-3" width="4.626" height="1.068" transform="translate(3.547) rotate(45)" fill="#fe8354"/>
      </g>
      <g id="Group_1-4" transform="translate(11.382 18.482) rotate(-90)">
        <rect id="Rectangle_11-4" width="8.185" height="1.068" transform="translate(2.734 9.003) rotate(-90)" fill="#fe8354"/>
        <rect id="Rectangle_12-4" width="1.068" height="4.626" transform="translate(0.755 4.11) rotate(-135)" fill="#fe8354"/>
        <rect id="Rectangle_13-4" width="4.626" height="1.068" transform="translate(5.868 4.026) rotate(-135)" fill="#fe8354"/>
      </g>
    </g>
  </g>
</svg>
