<svg xmlns="http://www.w3.org/2000/svg" width="61.999" height="70.317" viewBox="0 0 61.999 70.317">
  <g id="E-clinic" transform="translate(-8.8)">
    <g id="Group_17" data-name="Group 17" transform="translate(34.757 17.907)">
      <path id="Path_3" data-name="Path 3" d="M99.25,53.066,97,54.473l1.078.7c-2.156,3.422-6,6.657-10.829,10.782-3.235,2.719-3.469,3-5.063,4.36-1.641-1.359-1.828-1.641-5.063-4.36C72.3,61.833,68.5,58.6,66.295,55.176l1.359-.984L65.17,53.066a11.294,11.294,0,0,1-.984-5.016c.234-5.438,4.453-9.7,9.469-9.751h.094c4.266,0,7.032,3,8.438,5.672,1.453-2.719,4.219-5.625,8.532-5.672,5.016.047,9.235,4.313,9.469,9.751A10.766,10.766,0,0,1,99.25,53.066Z" transform="translate(-64.172 -38.253)" fill="#ff5b5b"/>
      <path id="Path_4" data-name="Path 4" d="M119.663,53.013l-2.25,1.406,1.078.7c-2.156,3.422-6,6.657-10.829,10.782-3.235,2.719-3.469,3-5.063,4.36V43.872c1.453-2.719,4.219-5.625,8.532-5.672,5.016.047,9.235,4.313,9.469,9.751A10.848,10.848,0,0,1,119.663,53.013Z" transform="translate(-84.586 -38.2)" fill="#ff001e"/>
      <path id="Path_5" data-name="Path 5" d="M100.38,60.291A11.537,11.537,0,0,1,99.255,62.4H83.973l-2.86,5.766L77.082,58.041l-1.453,4.313h-8.2A11.539,11.539,0,0,1,66.3,60.244h7.829L76.941,51.9l4.407,11.063,1.359-2.719H100.38Z" transform="translate(-65.303 -45.478)" fill="#e2e2e7"/>
      <path id="Path_6" data-name="Path 6" d="M119.663,69.8a11.537,11.537,0,0,1-1.125,2.109H103.256l-.656,1.313V69.8Z" transform="translate(-84.586 -54.987)" fill="#d3d3d8"/>
    </g>
    <g id="Group_20" data-name="Group 20" transform="translate(8.8)">
      <g id="Group_19" data-name="Group 19">
        <g id="Group_18" data-name="Group 18">
          <path id="Path_7" data-name="Path 7" d="M25.719,14.86a7.335,7.335,0,0,0,7.219-7.454A7.222,7.222,0,1,0,18.5,7.454,7.324,7.324,0,0,0,25.719,14.86Zm0-12.8a5.294,5.294,0,0,1,5.2,5.391,5.252,5.252,0,1,1-10.5,0A5.342,5.342,0,0,1,25.719,2.063Z" transform="translate(-13.953)" fill="#18b8d9"/>
          <path id="Path_8" data-name="Path 8" d="M31.254,44.194a1,1,0,0,0-.984,1.031v14.11a.641.641,0,0,1-.656.656H27.176V41.8a1.032,1.032,0,0,0-.984-1.031,1,1,0,0,0-.984,1.031V85.447a.641.641,0,0,1-.656.656H22.207a.641.641,0,0,1-.656-.656V69.04a1.032,1.032,0,0,0-.984-1.031,1,1,0,0,0-.984,1.031V85.447a.641.641,0,0,1-.656.656H16.582a.641.641,0,0,1-.656-.656V41.8a1.032,1.032,0,0,0-.984-1.031,1,1,0,0,0-.984,1.031V59.992H11.519a.641.641,0,0,1-.656-.656V41.8a6.064,6.064,0,0,1,5.953-6.141h7.5A6.064,6.064,0,0,1,30.27,41.8a1.032,1.032,0,0,0,.984,1.031,1,1,0,0,0,.984-1.031,8.105,8.105,0,0,0-7.969-8.2h-7.5A8.075,8.075,0,0,0,8.8,41.8V59.336a2.681,2.681,0,0,0,2.672,2.719H13.91V85.447a2.681,2.681,0,0,0,2.672,2.719h2.344a2.625,2.625,0,0,0,1.641-.609,2.625,2.625,0,0,0,1.641.609h2.344a2.711,2.711,0,0,0,2.672-2.719V62.008h2.438a2.711,2.711,0,0,0,2.672-2.719V45.226A1.116,1.116,0,0,0,31.254,44.194Z" transform="translate(-8.8 -17.849)" fill="#18b8d9"/>
        </g>
      </g>
    </g>
  </g>
</svg>
