<svg xmlns="http://www.w3.org/2000/svg" width="169" height="51.005" viewBox="0 0 169 51.005">
  <g id="Group_1" data-name="Group 1" transform="translate(-40 -40)">
    <g id="E2E-logo_1_" data-name="E2E-logo (1)" transform="translate(40 40)">
      <path id="Path_2" data-name="Path 2" d="M19.916,27.4V23.265H13.7a8.015,8.015,0,0,1,.918-1.234c.372-.424,1.269-1.285,2.684-2.569a34.055,34.055,0,0,0,2.611-2.585V5.373A8.068,8.068,0,0,0,15.19,4.081a8.43,8.43,0,0,0-5.265,1.6c-1.393,1.1-2.188,2.825-2.487,5.278l4.446.445a4.382,4.382,0,0,1,.955-2.8,3.447,3.447,0,0,1,4.446-.037,3.119,3.119,0,0,1,.8,2.292,4.908,4.908,0,0,1-.927,2.723c-3.3,4.8-8.824,7.161-9.56,13.819l-.073-.088s5.153.547,6.417.5,1.83,0,2.312-.3a17.465,17.465,0,0,1,3.647-.387v.277" fill="#c5c5c3"/>
      <path id="Path_13004" data-name="Path 13004" d="M16.324,27.931l-.332,1.9H.078V0h5.4V.025H15.992V3.561c-.9-.974-9.44-1.331-10.511-1.343V13.639c2.08,0,3.889-.025,5.686-.049s3.557-.062,5.576-.074a12.687,12.687,0,0,1-1.379,1.552c-.886.924-1.821,1.811-2.757,2.686l-.43.394h-6.7v9.463C6.552,27.611,15.426,28.9,16.324,27.931Z" fill="#f15a5c"/>
      <path id="Path_13005" data-name="Path 13005" d="M25.285,27.611c1.07,0,9.612-.382,10.511-1.343v3.56H25.285V29.8h-5.4V0h5.391V13.6c2.093,0,3.9-.025,5.687-.049s3.557-.05,5.575-.074a10.931,10.931,0,0,1-1.366,1.564c-.886.925-1.822,1.812-2.769,2.686l-.419.4h-6.7Z" fill="#f15a5c"/>
      <path id="Path_13006" data-name="Path 13006" d="M35.8,3.561c-.9-.974-9.441-1.331-10.511-1.343V.025H35.8Z" fill="#ea4448"/>
      <path id="Path_5" data-name="Path 5" d="M48.509,11.934a27.384,27.384,0,0,1,4.835-.394c2.69,0,4.433.481,5.651,1.547a4.676,4.676,0,0,1,1.532,3.606A5.015,5.015,0,0,1,56.88,21.54v.085c1.5.511,2.4,1.861,2.866,3.833a29.724,29.724,0,0,0,1.5,5.2h-2.6a24.152,24.152,0,0,1-1.305-4.534c-.576-2.613-1.617-3.6-3.909-3.687H51.054v8.22H48.538Zm2.516,8.65h2.581c2.691,0,4.375-1.459,4.375-3.606,0-2.452-1.83-3.518-4.492-3.548A10.448,10.448,0,0,0,51,13.657Z" fill="#f15a5c"/>
      <path id="Path_6" data-name="Path 6" d="M65.537,24.29a4.435,4.435,0,0,0,4.108,4.737,4.519,4.519,0,0,0,.7-.006,9.47,9.47,0,0,0,3.879-.73l.437,1.774a11.652,11.652,0,0,1-4.66.846c-4.317,0-6.9-2.759-6.9-6.868s2.494-7.352,6.568-7.352c4.572,0,5.79,3.913,5.79,6.424a9.263,9.263,0,0,1-.088,1.153Zm7.477-1.774c0-1.577-.671-4.029-3.536-4.029-2.575,0-3.7,2.307-3.908,4.029Z" fill="#f15a5c"/>
      <path id="Path_7" data-name="Path 7" d="M78.276,28.123a6.779,6.779,0,0,0,3.361.985c1.852,0,2.72-.9,2.72-2.023s-.729-1.832-2.6-2.511c-2.526-.869-3.7-2.19-3.7-3.855,0-2.19,1.819-4,4.835-4a7.114,7.114,0,0,1,3.442.846l-.635,1.8a5.484,5.484,0,0,0-2.844-.788c-1.51,0-2.348.839-2.348,1.854,0,1.131.838,1.635,2.668,2.314,2.425.9,3.647,2.08,3.647,4.109,0,2.4-1.911,4.081-5.243,4.081a8.2,8.2,0,0,1-3.941-.928Z" fill="#f15a5c"/>
      <path id="Path_8" data-name="Path 8" d="M91.512,24.29a4.435,4.435,0,0,0,4.108,4.737,4.518,4.518,0,0,0,.7-.006,9.475,9.475,0,0,0,3.887-.73l.43,1.774a11.583,11.583,0,0,1-4.66.846c-4.317,0-6.9-2.759-6.9-6.868s2.494-7.352,6.568-7.352c4.579,0,5.789,3.913,5.789,6.424a8.9,8.9,0,0,1-.088,1.153Zm7.477-1.774c0-1.577-.671-4.029-3.536-4.029-2.575,0-3.7,2.307-3.909,4.029Z" fill="#f15a5c"/>
      <path id="Path_9" data-name="Path 9" d="M112.36,30.66l-.2-1.72h-.088a5.277,5.277,0,0,1-4.288,2.029,3.942,3.942,0,0,1-4.273-3.581c-.01-.11-.015-.221-.015-.331,0-3.3,3.012-5.11,8.43-5.11V21.67a2.845,2.845,0,0,0-2.489-3.158,2.811,2.811,0,0,0-.7,0,7.163,7.163,0,0,0-3.647,1.011l-.576-1.635a8.918,8.918,0,0,1,4.579-1.176c4.281,0,5.324,2.848,5.324,5.578v5.122a18.479,18.479,0,0,0,.234,3.263Zm-.342-6.95c-2.779-.059-5.937.424-5.937,3.065a2.189,2.189,0,0,0,1.994,2.368,2.108,2.108,0,0,0,.4,0,3.478,3.478,0,0,0,3.391-2.278,2.518,2.518,0,0,0,.145-.787Z" fill="#f15a5c"/>
      <path id="Path_10" data-name="Path 10" d="M118.58,21.287c0-1.606,0-2.986-.116-4.256H120.7l.088,2.679h.116a4.187,4.187,0,0,1,3.879-2.985,2.645,2.645,0,0,1,.73.088v2.372a3.785,3.785,0,0,0-.868-.088,3.534,3.534,0,0,0-3.414,3.184,6.757,6.757,0,0,0-.116,1.153v7.3h-2.526Z" fill="#f15a5c"/>
      <path id="Path_11" data-name="Path 11" d="M137.731,30.135a9.652,9.652,0,0,1-4.026.788,6.563,6.563,0,0,1-6.977-6.123,6.632,6.632,0,0,1,0-.834c0-4.169,2.954-7.234,7.533-7.234a8.73,8.73,0,0,1,3.529.73l-.576,1.922a6.013,6.013,0,0,0-2.953-.65c-3.216,0-4.959,2.308-4.959,5.159A4.743,4.743,0,0,0,134.171,29a7.379,7.379,0,0,0,3.132-.679Z" fill="#f15a5c"/>
      <path id="Path_12" data-name="Path 12" d="M140.712,10.672h2.553v8.511h.058a4.64,4.64,0,0,1,1.819-1.751,5.408,5.408,0,0,1,2.6-.731c1.881,0,4.893,1.124,4.893,5.841v8.1H150.09v-7.81c0-2.19-.839-4.051-3.245-4.051a3.648,3.648,0,0,0-3.421,2.475,3.045,3.045,0,0,0-.167,1.182v8.219h-2.548Z" fill="#f15a5c"/>
      <g id="TM">
        <g id="Group_8281" data-name="Group 8281">
          <path id="Path_13007" data-name="Path 13007" d="M160.677,11.874h-2.043v6.332H157.8V11.874h-2.037v-.75h4.909Z" fill="#2c2c2b"/>
          <path id="Path_13008" data-name="Path 13008" d="M169,18.206h-.824V13.455q0-.562.069-1.378h-.02a4.357,4.357,0,0,1-.212.686L165.6,18.206h-.4l-2.413-5.4a4.4,4.4,0,0,1-.212-.726h-.019q.039.424.039,1.388v4.741h-.8V11.124h1.1l2.171,4.939a6.548,6.548,0,0,1,.326.849h.029q.211-.583.341-.869l2.215-4.919H169Z" fill="#2c2c2b"/>
        </g>
      </g>
      <g id="Group_8282" data-name="Group 8282">
        <path id="Path_13009" data-name="Path 13009" d="M5.07,43.365H1.264V46.9H5.506v1.06H0v-9.8H5.288v1.06H1.264v3.1H5.07Z" fill="#8b8c8f"/>
        <path id="Path_13010" data-name="Path 13010" d="M7.1,42.827c0-.728-.014-1.324-.058-1.906H8.18l.072,1.164h.029a2.586,2.586,0,0,1,2.325-1.324c.973,0,2.484.582,2.484,3v4.2H11.812V43.9c0-1.135-.422-2.08-1.628-2.08A1.817,1.817,0,0,0,8.47,43.132a1.844,1.844,0,0,0-.087.6V47.96H7.1Z" fill="#8b8c8f"/>
        <path id="Path_13011" data-name="Path 13011" d="M16.592,38.943a.792.792,0,0,1-1.584,0,.779.779,0,0,1,.8-.8.76.76,0,0,1,.784.8ZM15.168,47.96V40.921h1.278V47.96Z" fill="#8b8c8f"/>
        <path id="Path_13012" data-name="Path 13012" d="M24.626,40.921c-.03.509-.059,1.077-.059,1.935v4.086c0,1.615-.319,2.6-1,3.215A3.725,3.725,0,0,1,21.008,51a4.526,4.526,0,0,1-2.339-.582l.319-.974A3.964,3.964,0,0,0,21.052,50c1.307,0,2.266-.684,2.266-2.458v-.786h-.029a2.509,2.509,0,0,1-2.237,1.179A3.146,3.146,0,0,1,18.058,44.5c0-2.385,1.555-3.738,3.168-3.738a2.339,2.339,0,0,1,2.194,1.222h.029l.058-1.062ZM23.3,43.7a1.821,1.821,0,0,0-.073-.581,1.842,1.842,0,0,0-1.787-1.353c-1.221,0-2.092,1.032-2.092,2.661,0,1.382.7,2.531,2.077,2.531a1.87,1.87,0,0,0,1.775-1.31,2.247,2.247,0,0,0,.1-.684Z" fill="#8b8c8f"/>
        <path id="Path_13013" data-name="Path 13013" d="M26.6,42.827c0-.728-.014-1.324-.058-1.906h1.119l.058,1.135h.044a2.423,2.423,0,0,1,2.208-1.3,2.078,2.078,0,0,1,1.99,1.411h.029a2.914,2.914,0,0,1,.785-.916,2.4,2.4,0,0,1,1.554-.495c.93,0,2.311.611,2.311,3.055V47.96H35.39V43.976c0-1.353-.494-2.168-1.525-2.168a1.656,1.656,0,0,0-1.511,1.164,2.079,2.079,0,0,0-.1.64V47.96H31V43.743c0-1.12-.494-1.935-1.468-1.935a1.909,1.909,0,0,0-1.685,1.906V47.96H26.6Z" fill="#8b8c8f"/>
        <path id="Path_13014" data-name="Path 13014" d="M42.612,47.96l-.1-.887h-.043a2.62,2.62,0,0,1-2.151,1.048,2,2,0,0,1-2.15-2.022c0-1.7,1.511-2.632,4.228-2.618v-.146a1.451,1.451,0,0,0-1.6-1.629,3.5,3.5,0,0,0-1.831.524l-.29-.843a4.349,4.349,0,0,1,2.309-.626c2.151,0,2.674,1.469,2.674,2.88v2.632a9.931,9.931,0,0,0,.116,1.687Zm-.189-3.592c-1.4-.029-2.978.218-2.978,1.586a1.131,1.131,0,0,0,1.206,1.221A1.749,1.749,0,0,0,42.35,46a1.324,1.324,0,0,0,.073-.407Z" fill="#8b8c8f"/>
        <path id="Path_13015" data-name="Path 13015" d="M50.341,38.9v2.021h1.83V41.9h-1.83v3.8c0,.872.247,1.367.959,1.367a2.821,2.821,0,0,0,.741-.088l.058.961a3.151,3.151,0,0,1-1.134.174,1.771,1.771,0,0,1-1.38-.538,2.612,2.612,0,0,1-.494-1.833V41.9H48v-.975h1.089V39.234Z" fill="#8b8c8f"/>
        <path id="Path_13016" data-name="Path 13016" d="M59.886,44.383a3.439,3.439,0,0,1-3.5,3.738,3.345,3.345,0,0,1-3.37-3.622A3.436,3.436,0,0,1,56.5,40.761a3.332,3.332,0,0,1,3.386,3.622Zm-5.579.073c0,1.541.886,2.7,2.136,2.7,1.22,0,2.135-1.149,2.135-2.734,0-1.192-.6-2.7-2.106-2.7s-2.165,1.4-2.165,2.734Z" fill="#8b8c8f"/>
        <path id="Path_13017" data-name="Path 13017" d="M69.693,43.365H65.886V46.9h4.243v1.06H64.622v-9.8h5.289v1.06H65.886v3.1h3.807Z" fill="#8b8c8f"/>
        <path id="Path_13018" data-name="Path 13018" d="M71.727,42.827c0-.728-.015-1.324-.058-1.906H72.8l.072,1.164h.03a2.584,2.584,0,0,1,2.324-1.324c.973,0,2.484.582,2.484,3v4.2H76.434V43.9c0-1.135-.421-2.08-1.627-2.08a1.88,1.88,0,0,0-1.8,1.9v4.24h-1.28Z" fill="#8b8c8f"/>
        <path id="Path_13019" data-name="Path 13019" d="M79.79,37.634h1.278V47.96H79.79Z" fill="#8b8c8f"/>
        <path id="Path_13020" data-name="Path 13020" d="M84.642,38.943a.792.792,0,0,1-1.583,0,.779.779,0,0,1,.8-.8.759.759,0,0,1,.783.8ZM83.218,47.96V40.921H84.5V47.96Z" fill="#8b8c8f"/>
        <path id="Path_13021" data-name="Path 13021" d="M92.677,40.921c-.03.509-.059,1.077-.059,1.935v4.086c0,1.615-.319,2.6-1,3.215A3.725,3.725,0,0,1,89.059,51a4.524,4.524,0,0,1-2.339-.582l.319-.974A3.963,3.963,0,0,0,89.1,50c1.308,0,2.267-.684,2.267-2.458v-.786H91.34a2.509,2.509,0,0,1-2.24,1.176A3.146,3.146,0,0,1,86.109,44.5c0-2.385,1.555-3.738,3.168-3.738a2.339,2.339,0,0,1,2.194,1.222H91.5l.058-1.062ZM91.355,43.7a1.821,1.821,0,0,0-.073-.581A1.841,1.841,0,0,0,89.5,41.765c-1.221,0-2.092,1.032-2.092,2.661,0,1.382.7,2.531,2.077,2.531a1.87,1.87,0,0,0,1.773-1.309,2.247,2.247,0,0,0,.1-.684Z" fill="#8b8c8f"/>
        <path id="Path_13022" data-name="Path 13022" d="M94.739,37.634h1.279v4.393h.029a2.369,2.369,0,0,1,.915-.9,2.632,2.632,0,0,1,1.308-.364c.944,0,2.455.582,2.455,3.011V47.96H99.446V43.917c0-1.134-.421-2.094-1.627-2.094a1.838,1.838,0,0,0-1.714,1.28,1.566,1.566,0,0,0-.087.611V47.96H94.739Z" fill="#8b8c8f"/>
        <path id="Path_13023" data-name="Path 13023" d="M104.285,38.9v2.021h1.83V41.9h-1.83v3.8c0,.872.247,1.367.958,1.367a2.824,2.824,0,0,0,.742-.088l.058.961a3.149,3.149,0,0,1-1.133.174,1.772,1.772,0,0,1-1.381-.538,2.612,2.612,0,0,1-.494-1.833V41.9h-1.09v-.975h1.09V39.234Z" fill="#8b8c8f"/>
        <path id="Path_13024" data-name="Path 13024" d="M108.178,44.674a2.254,2.254,0,0,0,2.412,2.443,4.616,4.616,0,0,0,1.947-.364l.218.917a5.7,5.7,0,0,1-2.339.436,3.267,3.267,0,0,1-3.458-3.549c0-2.123,1.249-3.8,3.3-3.8,2.3,0,2.906,2.022,2.906,3.316a4.734,4.734,0,0,1-.044.6Zm3.749-.917a1.822,1.822,0,0,0-1.773-2.079,2.119,2.119,0,0,0-1.961,2.079Z" fill="#8b8c8f"/>
        <path id="Path_13025" data-name="Path 13025" d="M114.745,42.827c0-.728-.014-1.324-.058-1.906h1.133l.073,1.164h.029a2.584,2.584,0,0,1,2.324-1.324c.974,0,2.485.582,2.485,3v4.2h-1.279V43.9c0-1.135-.421-2.08-1.627-2.08a1.817,1.817,0,0,0-1.714,1.309,1.844,1.844,0,0,0-.087.6V47.96h-1.279Z" fill="#8b8c8f"/>
        <path id="Path_13026" data-name="Path 13026" d="M122.808,42.827c0-.728-.014-1.324-.058-1.906h1.119l.058,1.135h.043a2.425,2.425,0,0,1,2.209-1.3,2.081,2.081,0,0,1,1.991,1.411h.028a2.889,2.889,0,0,1,.785-.916,2.4,2.4,0,0,1,1.554-.495c.93,0,2.311.611,2.311,3.055V47.96H131.6V43.976c0-1.353-.494-2.168-1.526-2.168a1.658,1.658,0,0,0-1.511,1.164,2.11,2.11,0,0,0-.1.64V47.96h-1.25V43.743c0-1.12-.494-1.935-1.467-1.935a1.749,1.749,0,0,0-1.584,1.28,1.784,1.784,0,0,0-.1.626V47.96h-1.25Z" fill="#8b8c8f"/>
        <path id="Path_13027" data-name="Path 13027" d="M135.637,44.674a2.254,2.254,0,0,0,2.412,2.443A4.616,4.616,0,0,0,140,46.753l.218.917a5.7,5.7,0,0,1-2.339.436,3.267,3.267,0,0,1-3.458-3.549c0-2.123,1.249-3.8,3.3-3.8,2.295,0,2.9,2.022,2.9,3.316a4.78,4.78,0,0,1-.043.6Zm3.749-.917a1.822,1.822,0,0,0-1.773-2.079,2.119,2.119,0,0,0-1.961,2.079Z" fill="#8b8c8f"/>
        <path id="Path_13028" data-name="Path 13028" d="M142.2,42.827c0-.728-.015-1.324-.059-1.906h1.134l.072,1.164h.03a2.584,2.584,0,0,1,2.324-1.324c.973,0,2.484.582,2.484,3v4.2h-1.278V43.9c0-1.135-.421-2.08-1.627-2.08a1.817,1.817,0,0,0-1.715,1.309,1.844,1.844,0,0,0-.087.6V47.96H142.2Z" fill="#8b8c8f"/>
        <path id="Path_13029" data-name="Path 13029" d="M151.749,38.9v2.021h1.831V41.9h-1.831v3.8c0,.872.247,1.367.959,1.367a2.821,2.821,0,0,0,.741-.088l.058.961a3.145,3.145,0,0,1-1.133.174,1.77,1.77,0,0,1-1.38-.538,2.612,2.612,0,0,1-.494-1.833V41.9h-1.09v-.975h1.09V39.234Z" fill="#8b8c8f"/>
      </g>
    </g>
  </g>
</svg>
