<svg xmlns="http://www.w3.org/2000/svg" width="60.411" height="74.706" viewBox="0 0 60.411 74.706">
  <g id="EFS_keypress" transform="translate(-0.098 -0.585)">
    <path id="Path_332" data-name="Path 332" d="M52.554,110.263c-.258-1.552-.453-2.457-.647-3.622H8.637c-.194,1.034-.389,1.941-.647,3.622C5.335,108.452,2.945,106.834.1,104.9c2.717-1.876,5.045-3.493,7.892-5.5-.258,4.59,2.656,4.012,5.3,4.012,11.707,0,23.479-.064,35.186.064,2.522,0,4.269-.323,3.751-4.269,3.04,2.07,5.366,3.687,8.279,5.627C57.664,106.768,55.336,108.385,52.554,110.263Z" transform="translate(0 -34.972)" fill="rgba(149,180,251,0.4)"/>
    <path id="Path_334" data-name="Path 334" d="M14.343,62.311c.453-.518.518-.647.582-.647,8.344-2.007,8.344-2.007,8.344-10.736,0-14.425-.064-28.912.064-43.338,0-2.781-.708-3.751-3.622-3.687-8.99.13-12.741,2.783-15.458,11.256-.258.84-.708,1.617-1.034,2.457-.323-.064-.582-.064-.908-.13-.13-1.294-.258-2.587-.323-3.88-.064-3.428.064-6.921,0-10.349C1.925,1.447,2.636.8,4.448.8,21.971.864,39.568.864,57.1.93c.84,0,2.39.84,2.39,1.294.193,4.98.127,9.96.127,15-.323.064-.708.13-1.034.194-.518-1.294-1.034-2.655-1.552-3.945C54.38,6.1,47.524,2.223,40.085,4.163c-.776.194-1.617,2.07-1.617,3.1-.13,11.125-.064,22.185-.064,33.31,0,4.528-.064,9.055.064,13.583.064,5.3,1.294,6.533,6.533,7.309a2.349,2.349,0,0,1,1.81.908C36.076,62.311,25.4,62.311,14.343,62.311Z" transform="translate(-0.661 -0.215)" fill="#95b4fb"/>
  </g>
</svg>
