<svg id="Layer_2" data-name="Layer 2" xmlns="http://www.w3.org/2000/svg" width="113.434" height="52" viewBox="0 0 113.434 52">
  <g id="Layer_1" data-name="Layer 1">
    <path id="Path_745" data-name="Path 745" d="M17.837,23.011H1.547A1.547,1.547,0,0,1,0,21.464V5.187A1.547,1.547,0,0,1,1.547,3.64h16.29a1.534,1.534,0,0,1,1.534,1.547V21.464a1.534,1.534,0,0,1-1.534,1.547ZM1.547,4.693a.494.494,0,0,0-.494.494V21.464a.494.494,0,0,0,.494.494h16.29a.507.507,0,0,0,.494-.494V5.187a.507.507,0,0,0-.494-.494Z" transform="translate(0 1.092)" fill="#f05c5b"/>
    <path id="Path_746" data-name="Path 746" d="M17.837,39.671H1.547A1.547,1.547,0,0,1,0,38.111V21.847A1.547,1.547,0,0,1,1.547,20.3h16.29a1.534,1.534,0,0,1,1.534,1.547V38.111a1.534,1.534,0,0,1-1.534,1.56ZM1.547,21.353a.494.494,0,0,0-.494.494V38.111a.507.507,0,0,0,.494.507h16.29a.52.52,0,0,0,.494-.507V21.847a.507.507,0,0,0-.494-.494Z" transform="translate(0 6.088)" fill="#f05c5b"/>
    <rect id="Rectangle_2130" data-name="Rectangle 2130" width="4.706" height="18.318" rx="0.78" transform="translate(21.021 26.908)" fill="#f05c5b"/>
    <path id="Path_747" data-name="Path 747" d="M33,25.352a1.664,1.664,0,0,1-.78-.208L18.11,16.992a1.508,1.508,0,0,1-.728-.936,1.534,1.534,0,0,1,.156-1.17L25.69.78A1.534,1.534,0,0,1,27.8.208L41.928,8.359a1.547,1.547,0,0,1,.546,2.106L34.283,24.7a1.6,1.6,0,0,1-.9.65,2,2,0,0,1-.39,0Zm-5.967-24.3A.481.481,0,0,0,26.6,1.3L18.448,15.406a.546.546,0,0,0,0,.377.494.494,0,0,0,.234.3L32.8,24.234a.546.546,0,0,0,.377,0,.572.572,0,0,0,.3-.234v-.065l8.126-14a.455.455,0,0,0,0-.364.533.533,0,0,0-.221-.312L41.6,8.8l-.26.455L27.3,1.118a.442.442,0,0,0-.273-.065Z" transform="translate(5.199 0)" fill="#f05c5b"/>
    <path id="Path_748" data-name="Path 748" d="M20.8,23.963V27.9h8.243v3.25H20.8V35.82h8.243l.052,3.211H17L16.95,20.7H29.184v3.263Z" transform="translate(5.085 6.208)" fill="#f05c5b"/>
    <path id="Path_749" data-name="Path 749" d="M27.546,27.87V24.126h3.64c.078.351.13,1.6.156,2.041a4.134,4.134,0,0,1,3.9-2.054c2.73,0,4.511,1.859,4.511,5.278V38.05h-3.77V29.807c0-1.534-.52-2.6-2.184-2.6s-2.509.9-2.509,3.289v7.593H27.52Z" transform="translate(8.256 7.229)" fill="#f05c5b"/>
    <path id="Path_750" data-name="Path 750" d="M51.432,37.582c0,4.42-1.638,7.228-6.864,7.228-5.031,0-6.032-2.821-6.162-4.368h3.9a2.184,2.184,0,0,0,2.431,1.586c2.483,0,2.951-1.508,2.951-4.212V36a4.069,4.069,0,0,1-3.9,1.937c-3.64,0-5.707-2.977-5.707-6.7,0-4.316,2.6-7.267,6.032-7.267,2.366,0,3.354,1.118,3.562,1.768,0-.377.13-1.222.156-1.443h3.614V28.26Zm-9.413-6.5c0,2.379,1.183,3.783,2.873,3.783,2.3,0,2.912-1.586,2.912-3.9s-.4-3.9-2.834-3.9c-1.651-.026-2.951,1.248-2.951,4Z" transform="translate(11.424 7.19)" fill="#f05c5b"/>
    <path id="Path_751" data-name="Path 751" d="M61.719,34.515a32.151,32.151,0,0,0,.156,3.575H58.248a6.162,6.162,0,0,1-.2-1.3c-.494.767-1.43,1.664-3.9,1.664a4.264,4.264,0,0,1-4.732-4.329c0-3.146,2.522-4.589,6.578-4.589h1.976V28.69c0-.988-.351-1.95-2.119-1.95s-1.976.689-2.145,1.69H50.07C50.278,25.973,51.8,24,56,24.01c3.692,0,5.707,1.469,5.707,4.758ZM57.975,31.8H56.441c-2.314,0-3.159.7-3.159,2.041A1.768,1.768,0,0,0,55.271,35.7c2.418,0,2.717-1.69,2.717-3.51Z" transform="translate(14.826 7.202)" fill="#f05c5b"/>
    <path id="Path_752" data-name="Path 752" d="M60.63,27.9V24.339h3.653a15.992,15.992,0,0,1,.143,1.651,4.29,4.29,0,0,1,3.9-1.976,3.627,3.627,0,0,1,3.562,2.106A4.784,4.784,0,0,1,76.049,24c2.405,0,4.381,1.482,4.381,5.07v9.1H76.712V29.5c0-1.3-.455-2.47-2.015-2.47s-2.262,1.053-2.262,3.172v7.892H68.678V29.643c0-1.43-.351-2.6-1.989-2.6s-2.288.962-2.288,3.328v7.71H60.63Z" transform="translate(18.188 7.198)" fill="#f05c5b"/>
    <path id="Path_753" data-name="Path 753" d="M81.075,32.018c0,1.716.871,3.406,2.769,3.406a2.184,2.184,0,0,0,2.405-1.469h3.822a6.032,6.032,0,0,1-6.331,4.459c-4.537,0-6.5-3.393-6.5-7.02,0-4.329,2.223-7.424,6.656-7.424,4.732,0,6.344,3.432,6.344,6.877a8.337,8.337,0,0,1,0,1.17Zm5.33-2.353c0-1.6-.676-2.951-2.6-2.951s-2.6,1.3-2.717,2.951Z" transform="translate(23.172 7.19)" fill="#f05c5b"/>
    <path id="Path_754" data-name="Path 754" d="M2.622,11.149v-.741a.2.2,0,0,1,.169-.208h0A.208.208,0,0,1,3,10.408v.832a.2.2,0,0,1-.169.208h0a.234.234,0,0,1-.208-.3Z" transform="translate(0.784 3.06)" fill="#f05c5b"/>
    <path id="Path_755" data-name="Path 755" d="M2.62,8.747V7.928a.2.2,0,0,1,.169-.208h0c.156,0,.208.1.26.26v.741a.234.234,0,0,1-.208.26A.247.247,0,0,1,2.62,8.747Z" transform="translate(0.786 2.316)" fill="#f05c5b"/>
    <path id="Path_756" data-name="Path 756" d="M2.621,7.531V7.388a1.092,1.092,0,0,1,.208-.741.351.351,0,0,1,.364-.1.338.338,0,0,1,0,.377.858.858,0,0,0-.078.468v.156a.286.286,0,0,1-.26.169.208.208,0,0,1-.234-.182Z" transform="translate(0.785 1.959)" fill="#f05c5b"/>
    <path id="Path_757" data-name="Path 757" d="M5.519,6.716H4.778a.208.208,0,1,1,0-.416h.793c.156,0,.26.1.208.208a.234.234,0,0,1-.26.208Z" transform="translate(1.371 1.89)" fill="#f05c5b"/>
    <path id="Path_758" data-name="Path 758" d="M3.1,9.2v.793a.234.234,0,0,1-.208.26.234.234,0,0,1-.208-.26V9.2a.234.234,0,0,1,.208-.26A.234.234,0,0,1,3.1,9.2Z" transform="translate(0.804 2.682)" fill="#f05c5b"/>
    <rect id="Rectangle_2131" data-name="Rectangle 2131" width="1.209" height="0.416" rx="0.16" transform="translate(7.58 8.138)" fill="#f05c5b"/>
    <path id="Path_759" data-name="Path 759" d="M5.881,10.133c-.1-.1,0-.208,0-.312a.533.533,0,0,1,.52-.26.793.793,0,0,1,.585.208l.741.741c.1.1.1.26,0,.312a.2.2,0,0,1-.273,0h0l-.676-.689a.429.429,0,0,0-.585,0Z" transform="translate(1.751 2.867)" fill="#f05c5b"/>
    <path id="Path_760" data-name="Path 760" d="M4.757,12.358c0,.156-.117.208-.273.208H3.691a.208.208,0,0,1-.26-.156.221.221,0,0,1,.169-.26h.884A.26.26,0,0,1,4.757,12.358Z" transform="translate(1.028 3.644)" fill="#f05c5b"/>
    <path id="Path_761" data-name="Path 761" d="M7,6.508A.234.234,0,0,1,7.26,6.3h.793a.208.208,0,1,1,0,.416h-.78A.234.234,0,0,1,7,6.508Z" transform="translate(2.101 1.89)" fill="#f05c5b"/>
    <path id="Path_762" data-name="Path 762" d="M3.35,6.514a.208.208,0,0,1,.208-.208.975.975,0,0,1,.429,0h.364a.182.182,0,0,1,.208.169h0a.208.208,0,0,1-.208.208H3.558C3.4,6.722,3.35,6.618,3.35,6.514Z" transform="translate(1.005 1.885)" fill="#f05c5b"/>
    <path id="Path_763" data-name="Path 763" d="M6.78,9.228c0-.156.208-.208.429-.208a.78.78,0,0,1,.572.208l.845.845c.1.1.1.273,0,.325s-.208.1-.312,0l-.741-.741c-.208-.221-.312-.221-.533,0s-.26.1-.312,0A.431.431,0,0,1,6.78,9.228Z" transform="translate(2.009 2.705)" fill="#f05c5b"/>
    <path id="Path_764" data-name="Path 764" d="M3.3,12.18a.182.182,0,0,1,0,.273h0a.221.221,0,0,1-.286,0h0a1.04,1.04,0,0,1-.364-.845.208.208,0,0,1,.416,0A.741.741,0,0,0,3.3,12.18Z" transform="translate(0.795 3.42)" fill="#f05c5b"/>
    <path id="Path_765" data-name="Path 765" d="M8.332,6.838a.26.26,0,0,1-.065-.325.208.208,0,0,1,.286,0h0a1.17,1.17,0,0,1,.416.793c0,.208,0,.312-.208.312s-.208-.1-.208-.26a.728.728,0,0,0-.221-.52Z" transform="translate(2.472 1.937)" fill="#f05c5b"/>
    <path id="Path_766" data-name="Path 766" d="M8.926,7.863V8.6a.234.234,0,0,1-.208.26c-.156,0-.208-.1-.208-.26V7.811c0-.156.1-.26.208-.208S8.926,7.707,8.926,7.863Z" transform="translate(2.554 2.276)" fill="#f05c5b"/>
    <path id="Path_767" data-name="Path 767" d="M7.292,14.486c-.416-.26-.9-.52-1.3-.741a1.131,1.131,0,0,1-.481-1.521c0-.1,0-.1,0-.169A1.3,1.3,0,0,1,5,11.482a.858.858,0,0,1,.377-.9.78.78,0,0,1,.949.1c.312.312.637.637.949.9a.221.221,0,1,1-.312.312l-.845-.845A.481.481,0,0,0,5.8,10.9a.234.234,0,0,0-.26.208.429.429,0,0,0,.1.429l.793.793.325.312a.234.234,0,0,1-.325.325,4.55,4.55,0,0,1-.637-.481.7.7,0,0,0,.221.845,17.33,17.33,0,0,0,1.755.949,2.119,2.119,0,0,0,1.69,0,2.171,2.171,0,0,0,1.3-2.808v-.091a5.577,5.577,0,0,0-1.43-2.067.4.4,0,0,0-.52,0c-.156.1-.26.1-.325,0a.26.26,0,0,1,0-.364h0a.78.78,0,0,1,1.053,0,5.538,5.538,0,0,1,1.69,2.6,2.6,2.6,0,0,1-1.768,3.315l-.247.065A2.444,2.444,0,0,1,7.292,14.486Z" transform="translate(1.496 2.622)" fill="#f05c5b"/>
    <path id="Path_768" data-name="Path 768" d="M14.178,10.722v5.889a1.222,1.222,0,0,1-1.17,1.222H7.3A1.17,1.17,0,0,1,6,16.612v-1.3c0-.273.169-.325.26-.325s.273,0,.273.325v1.157a.611.611,0,0,0,.143.494.663.663,0,0,0,.442.247h5.746a.676.676,0,0,0,.741-.6v-5.72a.676.676,0,0,0-.143-.494.65.65,0,0,0-.455-.234h-1.2a.325.325,0,0,1-.325-.26c0-.273.273-.273.377-.273h1.105a1.157,1.157,0,0,1,.832.3,1.2,1.2,0,0,1,.377.793Z" transform="translate(1.8 2.888)" fill="#f05c5b"/>
    <path id="Path_769" data-name="Path 769" d="M11.605,28.31l-6.1-3.9a.559.559,0,0,0-.858.468v7.9a.546.546,0,0,0,.3.494.429.429,0,0,0,.26,0,.494.494,0,0,0,.3-.078l6.1-3.9a.585.585,0,0,0,.247-.481A.533.533,0,0,0,11.605,28.31ZM5.794,31.7v-5.85l4.511,2.938Z" transform="translate(1.395 7.296)" fill="#f05c5b"/>
    <path id="Path_770" data-name="Path 770" d="M28.589,7.224l.559.338a.161.161,0,0,0,.234-.221l-.559-.351a.182.182,0,0,0-.234,0,.2.2,0,0,0,0,.234Z" transform="translate(8.565 2.084)" fill="#f05c5b"/>
    <path id="Path_771" data-name="Path 771" d="M27.741,6.695l.559.338a.156.156,0,1,0,.221-.221l-.559-.351a.169.169,0,0,0-.234,0A.182.182,0,0,0,27.741,6.695Z" transform="translate(8.308 1.924)" fill="#f05c5b"/>
    <path id="Path_772" data-name="Path 772" d="M29.45,7.753l.559.338a.161.161,0,1,0,.234-.221l-.559-.351a.2.2,0,0,0-.234,0,.182.182,0,0,0,0,.234Z" transform="translate(8.823 2.498)" fill="#f05c5b"/>
    <path id="Path_773" data-name="Path 773" d="M26.575,5.968a.156.156,0,0,0,.221,0,.169.169,0,0,0,0-.234L26.237,5.4a.161.161,0,0,0-.169.273Z" transform="translate(7.798 1.611)" fill="#f05c5b"/>
    <path id="Path_774" data-name="Path 774" d="M30.317,8.29l.559.338h0a.325.325,0,0,1,.065.312.169.169,0,0,0,.078.182h0a.169.169,0,0,0,.208-.117.663.663,0,0,0,0-.533h0a.13.13,0,0,0,0-.065L30.5,8a.182.182,0,0,0-.234.065A.169.169,0,0,0,30.317,8.29Z" transform="translate(9.074 2.395)" fill="#f05c5b"/>
    <path id="Path_775" data-name="Path 775" d="M26.9,6.177l.559.338a.156.156,0,1,0,.221-.221l-.611-.4a.156.156,0,0,0-.221,0,.169.169,0,0,0,.052.286Z" transform="translate(8.036 1.753)" fill="#f05c5b"/>
    <path id="Path_776" data-name="Path 776" d="M24.689,6.191a.169.169,0,0,0,.221,0l.351-.546a.2.2,0,0,0,0-.234.169.169,0,0,0-.234,0l-.338.559a.169.169,0,0,0,0,.221Z" transform="translate(7.395 1.609)" fill="#f05c5b"/>
    <path id="Path_777" data-name="Path 777" d="M23.086,9.395a.338.338,0,0,1,0-.338h0a.161.161,0,1,0-.273-.169h-.091a.533.533,0,0,0,0,.208.13.13,0,0,0,.065.078.143.143,0,0,0,.143,0,.143.143,0,0,0,.156.221Z" transform="translate(6.814 2.643)" fill="#f05c5b"/>
    <path id="Path_778" data-name="Path 778" d="M23.011,9.536a.156.156,0,0,0,0,.221h.078l.169-.286H23.18A.169.169,0,0,0,23.011,9.536Z" transform="translate(6.89 2.84)" fill="#f05c5b"/>
    <path id="Path_779" data-name="Path 779" d="M25.916,5.326a.169.169,0,0,0,0-.234h-.13a.6.6,0,0,0-.494,0,.156.156,0,0,0,0,.286.169.169,0,0,0,.156,0,.3.3,0,0,1,.312,0,.156.156,0,0,0,.156-.052Z" transform="translate(7.56 1.512)" fill="#f05c5b"/>
    <path id="Path_780" data-name="Path 780" d="M24.168,7.081a.156.156,0,0,0,.221,0l.351-.559a.169.169,0,0,0-.065-.221.156.156,0,0,0-.221,0l-.338.559a.156.156,0,0,0,.052.221Z" transform="translate(7.227 1.876)" fill="#f05c5b"/>
    <path id="Path_781" data-name="Path 781" d="M23.636,7.936a.156.156,0,0,0,.221,0l.338-.559a.161.161,0,1,0-.273-.169l-.351.559a.169.169,0,0,0,.065.169Z" transform="translate(7.071 2.14)" fill="#f05c5b"/>
    <path id="Path_782" data-name="Path 782" d="M23.107,8.808a.169.169,0,0,0,.234,0l.338-.559a.18.18,0,0,0-.273-.234l-.4.572a.169.169,0,0,0,.1.221Z" transform="translate(6.898 2.385)" fill="#f05c5b"/>
    <path id="Path_783" data-name="Path 783" d="M27.689,11.092a.169.169,0,0,1,.156-.065h.325L27.078,10l-.338,1.443.338-.143a.182.182,0,0,1,.143,0h0a.169.169,0,0,1,.065.091l.39,1.222.4-.1-.39-1.209a.182.182,0,0,1,0-.208Z" transform="translate(8.022 3)" fill="#f05c5b"/>
    <path id="Path_784" data-name="Path 784" d="M33.657,10.638,26.909,6.491a.676.676,0,0,0-.91.221l-2.925,4.745a.637.637,0,0,0,.208.9L29.991,16.5a.65.65,0,0,0,.949-.221l2.938-4.745a.676.676,0,0,0-.221-.9Zm-4.732-.611a.156.156,0,0,1,.221,0,.169.169,0,0,1,.065.221l-.26.416a.165.165,0,0,1-.234-.234ZM27.4,10.82l-.494-.2h0a.169.169,0,0,1,0-.208.156.156,0,0,1,.208-.091l.468.2a.169.169,0,0,1,.091.208.156.156,0,0,1-.273.091Zm.624-.533a.13.13,0,0,1-.117,0,.143.143,0,0,1-.078-.091l-.156-.689a.169.169,0,0,1,.117-.2.182.182,0,0,1,.208.13l.156.676a.169.169,0,0,1-.13.169Zm1.4,3.523-.715.169a.143.143,0,0,1-.13,0,.169.169,0,0,1-.078-.091l-.3-1.17-.468.325a.156.156,0,0,1-.182,0,.169.169,0,0,1-.065-.169l.494-2.145a.2.2,0,0,1,.117-.13.169.169,0,0,1,.156,0l1.69,1.612a.156.156,0,0,1,0,.182.143.143,0,0,1-.169.091H29.21l.364,1.131a.143.143,0,0,1,0,.13.234.234,0,0,1-.143.065Z" transform="translate(6.891 1.919)" fill="#f05c5b"/>
  </g>
</svg>
