<svg xmlns="http://www.w3.org/2000/svg" width="75" height="75" viewBox="0 0 75 75">
  <g id="Icon_ionic-ios-close-circle-outline" data-name="Icon ionic-ios-close-circle-outline" transform="translate(-3.375 -3.375)">
    <path id="Path_11604" data-name="Path 11604" d="M40.4,36.332l-9.5-9.5,9.5-9.5a2.881,2.881,0,0,0-4.075-4.075l-9.5,9.5-9.5-9.5a2.756,2.756,0,0,0-4.075,0,2.784,2.784,0,0,0,0,4.075l9.5,9.5-9.5,9.5a2.786,2.786,0,0,0,0,4.075,2.862,2.862,0,0,0,4.075,0l9.5-9.5,9.5,9.5a2.9,2.9,0,0,0,4.075,0A2.862,2.862,0,0,0,40.4,36.332Z" transform="translate(14.053 14.045)" fill="#e83535"/>
    <path id="Path_11605" data-name="Path 11605" d="M40.875,8.423a32.457,32.457,0,0,1,22.951,55.4,32.457,32.457,0,0,1-45.9-45.9,32.237,32.237,0,0,1,22.951-9.5m0-5.048a37.5,37.5,0,1,0,37.5,37.5,37.494,37.494,0,0,0-37.5-37.5Z" transform="translate(0 0)" fill="#e83535"/>
  </g>
</svg>
