<svg xmlns="http://www.w3.org/2000/svg" width="30" height="20" viewBox="0 0 30 20">
  <g id="Group_23" data-name="Group 23" transform="translate(-1294 -420)">
    <path id="round" d="M16.333,26h3.333a1.667,1.667,0,1,0,0-3.333H16.333a1.667,1.667,0,1,0,0,3.333ZM3,7.667A1.672,1.672,0,0,0,4.667,9.333H31.333a1.667,1.667,0,1,0,0-3.333H4.667A1.672,1.672,0,0,0,3,7.667Zm6.667,10H26.333a1.667,1.667,0,0,0,0-3.333H9.667a1.667,1.667,0,0,0,0,3.333Z" transform="translate(1291 414)" fill="#363636"/>
  </g>
</svg>
