<svg id="Invoice" xmlns="http://www.w3.org/2000/svg" width="40" height="40" viewBox="0 0 40 40">
  <g id="Rectangle_2135" data-name="Rectangle 2135" fill="#fff" stroke="#9d9d9d" stroke-width="1">
    <rect width="40" height="40" rx="6" stroke="none"/>
    <rect x="0.5" y="0.5" width="39" height="39" rx="5.5" fill="none"/>
  </g>
  <g id="Layer_2" data-name="Layer 2" transform="translate(6.5 5.5)">
    <path id="Path_793" data-name="Path 793" d="M0,0H9.978V1H0Z" transform="translate(9 18.5)" fill="#9d9d9d"/>
    <path id="Path_792" data-name="Path 792" d="M23.1,2.5H3.9A2.452,2.452,0,0,0,1.5,5,2.452,2.452,0,0,0,3.9,7.5H5.34V24a.511.511,0,0,0,.14.354l1.92,2a.467.467,0,0,0,.68,0l1.58-1.647,1.58,1.647a.467.467,0,0,0,.68,0l1.58-1.647,1.58,1.647a.467.467,0,0,0,.68,0l1.58-1.647,1.58,1.647a.467.467,0,0,0,.68,0l1.92-2A.511.511,0,0,0,21.66,24V7.5H23.1A2.452,2.452,0,0,0,25.5,5,2.452,2.452,0,0,0,23.1,2.5Zm-7.68,20H8.7a.5.5,0,0,1,0-1h6.72a.5.5,0,0,1,0,1ZM19.78,20a.49.49,0,0,1-.48.5H8.7a.49.49,0,0,1-.48-.5V18a.49.49,0,0,1,.48-.5H19.3a.49.49,0,0,1,.48.5Zm-5.76-7a.49.49,0,0,1,.48-.5h1.92a.5.5,0,0,1,0,1H14.5A.49.49,0,0,1,14.02,13Zm5.28-1.5H14.5a.5.5,0,0,1,0-1h4.8a.5.5,0,0,1,0,1Zm0-2H14.5a.5.5,0,0,1,0-1h4.8a.5.5,0,0,1,0,1Zm3.8-3H21.66v-1H23.1a.5.5,0,0,0,0-1H3.9a.5.5,0,0,0,0,1H5.34v1H3.9A1.471,1.471,0,0,1,2.46,5,1.471,1.471,0,0,1,3.9,3.5H23.1A1.471,1.471,0,0,1,24.54,5,1.471,1.471,0,0,1,23.1,6.5Z" fill="#9d9d9d"/>
    <text id="_" data-name="$" transform="translate(7.5 14.5)" fill="#fff" font-size="10" font-family="Barlow-Medium, Barlow" font-weight="500"><tspan x="0" y="0">$</tspan></text>
  </g>
</svg>
