<svg xmlns="http://www.w3.org/2000/svg" width="520" height="559.172" viewBox="0 0 520 559.172">
  <g id="Objects" opacity="0.3">
    <g id="Group_3600" data-name="Group 3600" transform="translate(0)" opacity="0.5">
      <path id="Path_744" data-name="Path 744" d="M53.454,538.479a27.418,27.418,0,0,1-.1-35.1c8.427-9.675,22.2-9.675,30.679,0s8.527,25.421.1,35.1-22.2,9.675-30.68,0ZM8.893,420.064a12.92,12.92,0,0,1-.054-16.539,9.368,9.368,0,0,1,14.472,0,12.918,12.918,0,0,1,.04,16.539A9.354,9.354,0,0,1,8.893,420.064Zm75.9-44.391a12.936,12.936,0,0,1-.04-16.539,9.36,9.36,0,0,1,14.464,0,12.952,12.952,0,0,1,.048,16.56,9.354,9.354,0,0,1-14.472,0ZM196.7,503.306a12.955,12.955,0,0,1-.047-16.56,9.36,9.36,0,0,1,14.472,0,12.916,12.916,0,0,1,.039,16.539,9.356,9.356,0,0,1-14.464,0ZM20.31,178.376a12.94,12.94,0,0,1-.048-16.56,9.356,9.356,0,0,1,14.472,0,12.918,12.918,0,0,1,.04,16.539,9.356,9.356,0,0,1-14.464,0ZM364.572,540.05a12.935,12.935,0,0,1-.048-16.539,9.356,9.356,0,0,1,14.466,0,12.949,12.949,0,0,1,.047,16.56,9.352,9.352,0,0,1-14.464,0Zm-53.49-70.413a12.92,12.92,0,0,1-.054-16.539,9.368,9.368,0,0,1,14.472,0,12.918,12.918,0,0,1,.04,16.539A9.353,9.353,0,0,1,311.081,469.637ZM49.149,95.842c-8.482-9.672-8.527-25.421-.1-35.1s22.2-9.675,30.679,0,8.527,25.421.1,35.1S57.637,105.526,49.149,95.842ZM436.605,506.794c-8.49-9.684-8.535-25.421-.1-35.105s22.19-9.681,30.68,0,8.527,25.421.1,35.105S445.088,516.467,436.605,506.794ZM152.452,26.685a12.92,12.92,0,0,1-.056-16.539,9.37,9.37,0,0,1,14.473,0,12.918,12.918,0,0,1,.039,16.539A9.352,9.352,0,0,1,152.452,26.685ZM496.7,388.37a12.937,12.937,0,0,1-.048-16.539,9.358,9.358,0,0,1,14.466,0,12.945,12.945,0,0,1,.046,16.557,9.352,9.352,0,0,1-14.464,0Zm-90.286-164.58a12.957,12.957,0,0,1-.048-16.56,9.36,9.36,0,0,1,14.472,0,12.918,12.918,0,0,1,.04,16.539,9.354,9.354,0,0,1-14.464,0ZM340.338,97.413a12.937,12.937,0,0,1-.048-16.539,9.356,9.356,0,0,1,14.466,0,12.95,12.95,0,0,1,.047,16.56,9.352,9.352,0,0,1-14.464,0Zm127.447,65.4a12.938,12.938,0,0,1-.048-16.557,9.354,9.354,0,0,1,14.472,0,12.953,12.953,0,0,1,.048,16.557A9.366,9.366,0,0,1,467.785,162.812ZM422.264,80.289c-8.483-9.675-8.527-25.421-.1-35.105s22.2-9.672,30.679,0,8.535,25.421.1,35.105S430.752,89.97,422.264,80.289Zm38.856-44.606c-13.08-14.919-34.294-14.919-47.289,0-12.011,13.782-12.847,35.565-2.577,50.569L318.926,192.238l-29.04-33.121,48.1-55.212a14.626,14.626,0,0,0,20.979-1.737,20.386,20.386,0,0,0-.067-26.064c-6.3-7.185-16.518-7.176-22.778,0-5.686,6.527-6.157,16.784-1.456,23.984l-48.1,55.234-7.095-8.092c-12.54-14.3-32.994-14.3-45.451,0L209.643,175.21l-60.216-68.676,10.283-69.711a15.029,15.029,0,0,0,11.369-5.381A20.373,20.373,0,0,0,171,5.386c-6.3-7.185-16.512-7.182-22.77,0a20.373,20.373,0,0,0,.074,26.055,15.683,15.683,0,0,0,6.755,4.594l-10.678,72.311L206.334,179l-23.806,27.338L90.88,101.814c10.183-15.007,9.225-36.78-2.873-50.578-13.08-14.919-34.294-14.919-47.289,0s-12.926,39.2.155,54.109c12.093,13.8,31.133,14.824,44.211,3.121l91.648,104.525L150.89,242.654,82.948,165.161l-39.707,1.06a19.165,19.165,0,0,0-4.361-9.151c-6.3-7.185-16.512-7.185-22.771,0a20.373,20.373,0,0,0,.074,26.055c6.3,7.185,16.512,7.185,22.771,0a19.483,19.483,0,0,0,4.608-11.54l37.5-.989,66.523,75.858-22.9,26.284c-12.459,14.3-12.393,37.705.147,52.005l.495.567-23.775,27.3a14.634,14.634,0,0,0-20.964,1.755,20.373,20.373,0,0,0,.073,26.055c6.3,7.185,16.512,7.182,22.771,0,5.7-6.545,6.163-16.793,1.456-24l23.784-27.3,23.542,26.851L93.144,423.776,32.193,411.785a19.85,19.85,0,0,0-4.747-13.02c-6.3-7.185-16.518-7.191-22.778,0a20.382,20.382,0,0,0,.082,26.061c6.3,7.185,16.511,7.185,22.77,0a18.9,18.9,0,0,0,4-7.715l63.24,12.444,60.785-69.779L179.507,387.1l-90.3,103.656c-13.137-11.709-32.173-10.674-44.188,3.115a42.267,42.267,0,0,0,.153,54.109c13.08,14.919,34.294,14.919,47.289,0,12.011-13.782,12.853-35.574,2.577-50.569l90.3-103.662,49.535,56.5a33.375,33.375,0,0,0,2.481,2.551l-23.9,27.439a14.633,14.633,0,0,0-20.964,1.752,20.373,20.373,0,0,0,.074,26.055c6.3,7.185,16.511,7.185,22.77,0,5.7-6.545,6.165-16.808,1.45-24.009L241.294,455.9c12.335,8.288,28.528,6.4,39.036-5.663l12.413-14.251,12.607,14.395c-4.667,7.21-4.144,17.476,1.594,24.018,6.292,7.176,16.511,7.185,22.77,0a20.381,20.381,0,0,0-.074-26.055c-5.737-6.533-14.687-7.115-20.965-1.761l-12.616-14.395,20.685-23.745,54.435,62.085-.752,42.912a15.18,15.18,0,0,0-10.069,5.311,20.381,20.381,0,0,0,.074,26.055c6.293,7.176,16.518,7.194,22.778,0a20.386,20.386,0,0,0-.082-26.064,15.5,15.5,0,0,0-8.013-4.962l.8-45.427-55.866-63.705,25.84-29.666,79.566,90.746c-10.191,14.992-9.225,36.78,2.865,50.566,13.08,14.919,34.294,14.919,47.289,0s12.926-39.2-.155-54.11c-12.094-13.782-31.133-14.821-44.2-3.112l-79.566-90.743L375.493,341l49.859,56.863,63.17-12.447a18.968,18.968,0,0,0,4.031,7.706c6.3,7.185,16.518,7.194,22.778,0a20.382,20.382,0,0,0-.082-26.061c-6.3-7.185-16.511-7.185-22.77,0a19.741,19.741,0,0,0-4.665,13.026l-60.883,12L378.8,337.207l10.853-12.462c12.458-14.3,12.391-37.705-.147-52.005l-11.25-12.833,25.81-29.629a14.634,14.634,0,0,0,20.979-1.737,20.375,20.375,0,0,0-.074-26.055c-6.3-7.185-16.512-7.182-22.77,0-5.693,6.536-6.165,16.775-1.465,23.994L374.93,256.106,354.1,232.354l67.365-77.334,37.5,1.011a19.617,19.617,0,0,0,4.682,11.528c6.3,7.185,16.512,7.185,22.771,0a20.369,20.369,0,0,0-.074-26.052c-6.3-7.185-16.512-7.185-22.77,0a19.066,19.066,0,0,0-4.31,9.151L419.55,149.6l-68.779,78.958-26.007-29.663L417.09,92.9c13.145,11.7,32.175,10.677,44.188-3.112,12.994-14.919,12.925-39.2-.155-54.109Z" transform="translate(0.001 0.001)" fill="#fff"/>
    </g>
  </g>
</svg>
