<svg xmlns="http://www.w3.org/2000/svg" width="108" height="108" viewBox="0 0 108 108">
  <g id="icon" transform="translate(-813 -461)">
    <g id="Path_786" data-name="Path 786" transform="translate(813 461)" fill="none">
      <path d="M54,0A54,54,0,1,1,0,54,54,54,0,0,1,54,0Z" stroke="none"/>
      <path d="M 54 4 C 47.24827194213867 4 40.70063781738281 5.321434020996094 34.53896331787109 7.927597045898438 C 28.58547210693359 10.44570922851562 23.23785400390625 14.05145263671875 18.6446533203125 18.6446533203125 C 14.05145263671875 23.23785400390625 10.44570922851562 28.58547210693359 7.927597045898438 34.53896331787109 C 5.321434020996094 40.70063781738281 4 47.24827194213867 4 54 C 4 60.751708984375 5.321434020996094 67.29934692382812 7.927597045898438 73.46101379394531 C 10.44570922851562 79.41450500488281 14.05145263671875 84.76213073730469 18.6446533203125 89.35533142089844 C 23.23785400390625 93.94854736328125 28.58548736572266 97.55427551269531 34.53896331787109 100.0724029541016 C 40.70063781738281 102.6785659790039 47.24827194213867 104 54 104 C 60.751708984375 104 67.29934692382812 102.6785659790039 73.46101379394531 100.0724029541016 C 79.41450500488281 97.55427551269531 84.76213073730469 93.94854736328125 89.35533142089844 89.35533142089844 C 93.94854736328125 84.76213073730469 97.55427551269531 79.41450500488281 100.0724029541016 73.46101379394531 C 102.6785659790039 67.29934692382812 104 60.751708984375 104 54 C 104 47.24827194213867 102.6785659790039 40.70063781738281 100.0724029541016 34.53896331787109 C 97.55427551269531 28.58548736572266 93.94854736328125 23.23785400390625 89.35533142089844 18.6446533203125 C 84.76213073730469 14.05145263671875 79.41450500488281 10.44570922851562 73.46101379394531 7.927597045898438 C 67.29934692382812 5.321434020996094 60.751708984375 4 54 4 M 54 0 C 83.8233642578125 0 108 24.17662048339844 108 54 C 108 83.8233642578125 83.8233642578125 108 54 108 C 24.17662048339844 108 0 83.8233642578125 0 54 C 0 24.17662048339844 24.17662048339844 0 54 0 Z" stroke="none" fill="#4bb543"/>
    </g>
    <path id="Path_787" data-name="Path 787" d="M59.567,22a1.653,1.653,0,0,0-1.188.567L28.122,55.524,8.978,34.443a1.615,1.615,0,0,0-2.438-.077,2.037,2.037,0,0,0-.07,2.684q.034.04.07.078L26.9,59.544a1.615,1.615,0,0,0,2.432.007L60.8,25.268a2.038,2.038,0,0,0,.048-2.685A1.65,1.65,0,0,0,59.567,22Z" transform="translate(835.668 473.95)" fill="#4bb543" fill-rule="evenodd"/>
  </g>
</svg>
