<svg xmlns="http://www.w3.org/2000/svg" width="75" height="75" viewBox="0 0 75 75">
  <g id="Icon_ionic-ios-checkmark-circle-outline" data-name="Icon ionic-ios-checkmark-circle-outline" transform="translate(-3.375 -3.375)">
    <path id="Path_11553" data-name="Path 11553" d="M49.052,15.686l-3.173-3.263a.682.682,0,0,0-.5-.216h0a.655.655,0,0,0-.5.216l-22,22.157-8-8a.7.7,0,0,0-1.01,0l-3.209,3.209a.718.718,0,0,0,0,1.028l10.1,10.1a3.193,3.193,0,0,0,2.109,1.028,3.346,3.346,0,0,0,2.091-.992h.018l24.1-24.231A.771.771,0,0,0,49.052,15.686Z" transform="translate(11.042 13.813)" fill="#40c400"/>
    <path id="Path_11554" data-name="Path 11554" d="M40.875,8.423a32.457,32.457,0,0,1,22.951,55.4,32.457,32.457,0,0,1-45.9-45.9,32.237,32.237,0,0,1,22.951-9.5m0-5.048a37.5,37.5,0,1,0,37.5,37.5,37.494,37.494,0,0,0-37.5-37.5Z" transform="translate(0 0)" fill="#40c400"/>
  </g>
</svg>
