<svg xmlns="http://www.w3.org/2000/svg" width="108" height="108" viewBox="0 0 108 108">
  <g id="icon" transform="translate(-813 -461)">
    <g id="Path_786" data-name="Path 786" transform="translate(813 461)" fill="none">
      <path d="M54,0A54,54,0,1,1,0,54,54,54,0,0,1,54,0Z" stroke="none"/>
      <path d="M 54 5 C 47.38283538818359 5 40.96627044677734 6.294853210449219 34.92852783203125 8.848617553710938 C 29.09423828125 11.31630706787109 23.85345458984375 14.85007476806641 19.35176086425781 19.35176086425781 C 14.85007476806641 23.85345458984375 11.31630706787109 29.09423828125 8.848617553710938 34.92852783203125 C 6.294853210449219 40.96627044677734 5 47.38283538818359 5 54 C 5 60.61716461181641 6.294853210449219 67.03372192382812 8.848617553710938 73.07147216796875 C 11.31630706787109 78.90576171875 14.85007476806641 84.14654541015625 19.35176086425781 88.64823913574219 C 23.85345458984375 93.14990997314453 29.09423828125 96.68369293212891 34.92852783203125 99.15138244628906 C 40.96627044677734 101.7051467895508 47.38283538818359 103 54 103 C 60.61716461181641 103 67.03372192382812 101.7051467895508 73.07147216796875 99.15138244628906 C 78.90576171875 96.68369293212891 84.14654541015625 93.14990997314453 88.64823913574219 88.64823913574219 C 93.14990997314453 84.14654541015625 96.68369293212891 78.90576171875 99.15138244628906 73.07147216796875 C 101.7051467895508 67.03372192382812 103 60.61716461181641 103 54 C 103 47.38283538818359 101.7051467895508 40.96627044677734 99.15138244628906 34.92852783203125 C 96.68369293212891 29.09423828125 93.14990997314453 23.85345458984375 88.64823913574219 19.35176086425781 C 84.14654541015625 14.85007476806641 78.90576171875 11.31630706787109 73.07147216796875 8.848617553710938 C 67.03372192382812 6.294853210449219 60.61716461181641 5 54 5 M 54 0 C 83.8233642578125 0 108 24.17662048339844 108 54 C 108 83.8233642578125 83.8233642578125 108 54 108 C 24.17662048339844 108 0 83.8233642578125 0 54 C 0 24.17662048339844 24.17662048339844 0 54 0 Z" stroke="none" fill="#fc0"/>
    </g>
    <path id="Path_788" data-name="Path 788" d="M2.5,0A2.5,2.5,0,0,1,5,2.5v53a2.5,2.5,0,0,1-5,0V2.5A2.5,2.5,0,0,1,2.5,0Z" transform="translate(864 481)" fill="#fc0"/>
    <path id="Path_789" data-name="Path 789" d="M4,0A4,4,0,1,1,0,4,4,4,0,0,1,4,0Z" transform="translate(863 542)" fill="#fc0"/>
  </g>
</svg>
