<svg xmlns="http://www.w3.org/2000/svg" viewBox="0 0 87.23 40"><defs><style>.cls-1{fill:#f05c5b;}</style></defs><g id="Layer_2" data-name="Layer 2"><g id="Layer_1-2" data-name="Layer 1"><path class="cls-1" d="M13.72,18.54H1.19A1.19,1.19,0,0,1,0,17.35V4.83A1.19,1.19,0,0,1,1.19,3.64H13.72A1.18,1.18,0,0,1,14.9,4.83V17.35A1.18,1.18,0,0,1,13.72,18.54ZM1.19,4.45a.38.38,0,0,0-.38.38V17.35a.38.38,0,0,0,.38.38H13.72a.39.39,0,0,0,.38-.38V4.83a.39.39,0,0,0-.38-.38Z"/><path class="cls-1" d="M13.72,35.2H1.19A1.19,1.19,0,0,1,0,34V21.49A1.19,1.19,0,0,1,1.19,20.3H13.72a1.18,1.18,0,0,1,1.18,1.19V34A1.18,1.18,0,0,1,13.72,35.2ZM1.19,21.11a.38.38,0,0,0-.38.38V34a.39.39,0,0,0,.38.39H13.72A.4.4,0,0,0,14.1,34V21.49a.39.39,0,0,0-.38-.38Z"/><rect class="cls-1" x="16.17" y="20.7" width="3.62" height="14.09" rx="0.78"/><path class="cls-1" d="M29.38,19.5a1.28,1.28,0,0,1-.6-.16L17.93,13.07a1.16,1.16,0,0,1-.56-.72,1.18,1.18,0,0,1,.12-.9L23.76.6A1.18,1.18,0,0,1,25.38.16L36.25,6.43a1.19,1.19,0,0,1,.42,1.62L30.37,19a1.23,1.23,0,0,1-.69.5A1.54,1.54,0,0,1,29.38,19.5ZM24.79.81a.37.37,0,0,0-.33.19L18.19,11.85a.42.42,0,0,0,0,.29.38.38,0,0,0,.18.23l10.86,6.27a.42.42,0,0,0,.29,0,.44.44,0,0,0,.23-.18l0-.05L36,7.64a.35.35,0,0,0,0-.28.41.41,0,0,0-.17-.24L36,6.77l-.2.35L25,.86A.34.34,0,0,0,24.79.81Z"/><polygon class="cls-1" points="19.91 23.21 19.91 26.24 26.25 26.24 26.25 28.74 19.91 28.74 19.91 32.33 26.25 32.33 26.29 34.8 16.99 34.8 16.95 20.7 26.36 20.7 26.36 23.21 19.91 23.21"/><path class="cls-1" d="M27.54,27c0-.89,0-2.11,0-2.88h2.8c.06.27.1,1.23.12,1.57a3.18,3.18,0,0,1,3-1.58c2.1,0,3.47,1.43,3.47,4.06v6.66h-2.9V28.49c0-1.18-.4-2-1.68-2s-1.93.69-1.93,2.53v5.84h-2.9Z"/><path class="cls-1" d="M48.35,34.44c0,3.4-1.26,5.56-5.28,5.56-3.87,0-4.64-2.17-4.74-3.36h3a1.68,1.68,0,0,0,1.87,1.22c1.91,0,2.27-1.16,2.27-3.24v-1.4a3.13,3.13,0,0,1-3,1.49c-2.8,0-4.39-2.29-4.39-5.15,0-3.32,2-5.59,4.64-5.59,1.82,0,2.58.86,2.74,1.36,0-.29.1-.94.12-1.11h2.78c0,1,0,2,0,3.05Zm-7.24-5c0,1.83.91,2.91,2.21,2.91,1.77,0,2.24-1.22,2.24-3s-.31-3-2.18-3C42.11,26.33,41.11,27.31,41.11,29.43Z"/><path class="cls-1" d="M58.88,32.09A24.73,24.73,0,0,0,59,34.84H56.21a4.74,4.74,0,0,1-.15-1c-.38.59-1.1,1.28-3,1.28a3.28,3.28,0,0,1-3.64-3.33c0-2.42,1.94-3.53,5.06-3.53H56v-.65c0-.76-.27-1.5-1.63-1.5s-1.52.53-1.65,1.3h-2.8c.16-1.89,1.33-3.41,4.56-3.4,2.84,0,4.39,1.13,4.39,3.66ZM56,30H54.82c-1.78,0-2.43.54-2.43,1.57A1.36,1.36,0,0,0,53.92,33c1.86,0,2.09-1.3,2.09-2.7Z"/><path class="cls-1" d="M60.63,27c0-.92,0-1.83,0-2.74h2.81a12.3,12.3,0,0,1,.11,1.27,3.3,3.3,0,0,1,3-1.52,2.79,2.79,0,0,1,2.74,1.62A3.68,3.68,0,0,1,72.49,24c1.85,0,3.37,1.14,3.37,3.9v7H73V28.23c0-1-.35-1.9-1.55-1.9s-1.74.81-1.74,2.44v6.07H66.82v-6.5c0-1.1-.27-2-1.53-2s-1.76.74-1.76,2.56v5.93h-2.9Z"/><path class="cls-1" d="M80.19,30.16c0,1.32.67,2.62,2.13,2.62a1.68,1.68,0,0,0,1.85-1.13h2.94a4.64,4.64,0,0,1-4.87,3.43c-3.49,0-5-2.61-5-5.4,0-3.33,1.71-5.71,5.12-5.71,3.64,0,4.88,2.64,4.88,5.29a6.41,6.41,0,0,1,0,.9Zm4.1-1.81c0-1.23-.52-2.27-2-2.27s-2,1-2.09,2.27Z"/><path class="cls-1" d="M2.62,10.93v-.57a.15.15,0,0,1,.13-.16h0a.16.16,0,0,1,.16.16V11a.15.15,0,0,1-.13.16h0A.18.18,0,0,1,2.62,10.93Z"/><path class="cls-1" d="M2.62,8.51V7.88a.15.15,0,0,1,.13-.16h0c.12,0,.16.08.2.2v.57a.18.18,0,0,1-.16.2A.19.19,0,0,1,2.62,8.51Z"/><path class="cls-1" d="M2.62,7.3V7.19a.84.84,0,0,1,.16-.57.27.27,0,0,1,.28-.08.26.26,0,0,1,0,.29A.66.66,0,0,0,3,7.19v.12a.22.22,0,0,1-.2.13A.16.16,0,0,1,2.62,7.3Z"/><path class="cls-1" d="M5.3,6.62H4.73a.16.16,0,1,1,0-.32h.61c.12,0,.2.08.16.16A.18.18,0,0,1,5.3,6.62Z"/><path class="cls-1" d="M3,9.14v.61a.18.18,0,0,1-.16.2.18.18,0,0,1-.16-.2V9.14a.18.18,0,0,1,.16-.2A.18.18,0,0,1,3,9.14Z"/><rect class="cls-1" x="5.83" y="6.26" width="0.93" height="0.32" rx="0.16"/><path class="cls-1" d="M5.87,10c-.08-.08,0-.16,0-.24a.41.41,0,0,1,.4-.2.61.61,0,0,1,.45.16l.57.57c.08.08.08.2,0,.24a.15.15,0,0,1-.21,0l0,0L6.56,10a.33.33,0,0,0-.45,0C6,10,6,10,5.87,10Z"/><path class="cls-1" d="M4.45,12.31c0,.12-.09.16-.21.16H3.63a.16.16,0,0,1-.2-.12.17.17,0,0,1,.13-.2h.68A.2.2,0,0,1,4.45,12.31Z"/><path class="cls-1" d="M7,6.46a.18.18,0,0,1,.2-.16h.61a.16.16,0,1,1,0,.32H7.21A.18.18,0,0,1,7,6.46Z"/><path class="cls-1" d="M3.35,6.46a.16.16,0,0,1,.16-.16.75.75,0,0,1,.33,0h.28a.14.14,0,0,1,.16.13v0a.16.16,0,0,1-.16.16H3.51C3.39,6.62,3.35,6.54,3.35,6.46Z"/><path class="cls-1" d="M6.76,9.18c0-.12.16-.16.33-.16a.6.6,0,0,1,.44.16l.65.65c.08.08.08.21,0,.25s-.16.08-.24,0l-.57-.57c-.16-.17-.24-.17-.41,0s-.2.08-.24,0S6.68,9.26,6.76,9.18Z"/><path class="cls-1" d="M3.15,12a.14.14,0,0,1,0,.21l0,0a.17.17,0,0,1-.22,0l0,0a.8.8,0,0,1-.28-.65.16.16,0,0,1,.16-.16.16.16,0,0,1,.16.16A.57.57,0,0,0,3.15,12Z"/><path class="cls-1" d="M8.31,6.75a.2.2,0,0,1-.05-.25.16.16,0,0,1,.22,0l0,0a.9.9,0,0,1,.32.61c0,.16,0,.24-.16.24s-.16-.08-.16-.2A.56.56,0,0,0,8.31,6.75Z"/><path class="cls-1" d="M8.83,7.8v.57a.18.18,0,0,1-.16.2c-.12,0-.16-.08-.16-.2V7.76c0-.12.08-.2.16-.16S8.83,7.68,8.83,7.8Z"/><path class="cls-1" d="M6.76,13.16c-.32-.2-.69-.4-1-.57a.87.87,0,0,1-.37-1.17c0-.08,0-.08,0-.13A1,1,0,0,1,5,10.85a.66.66,0,0,1,.29-.69.6.6,0,0,1,.73.08c.24.24.49.49.73.69a.17.17,0,1,1-.24.24l-.65-.65a.37.37,0,0,0-.25-.12.18.18,0,0,0-.2.16.33.33,0,0,0,.08.33l.61.61.25.24a.18.18,0,0,1-.25.25,3.5,3.5,0,0,1-.49-.37.54.54,0,0,0,.17.65A13.33,13.33,0,0,0,7.13,13a1.63,1.63,0,0,0,1.3,0,1.67,1.67,0,0,0,1-2.16l0-.07a4.29,4.29,0,0,0-1.1-1.59.31.31,0,0,0-.4,0c-.12.08-.2.08-.25,0a.2.2,0,0,1,0-.28h0a.6.6,0,0,1,.81,0,4.26,4.26,0,0,1,1.3,2,2,2,0,0,1-1.36,2.55l-.19.05A1.88,1.88,0,0,1,6.76,13.16Z"/><path class="cls-1" d="M12.29,10.47V15a.94.94,0,0,1-.9.94h0c-.77,0-1.51,0-2.23,0H7A.9.9,0,0,1,6,15V14c0-.21.13-.25.2-.25s.21,0,.21.25v.89a.47.47,0,0,0,.11.38.51.51,0,0,0,.34.19h4.42a.52.52,0,0,0,.57-.46V10.6a.52.52,0,0,0-.11-.38.5.5,0,0,0-.35-.18h-.92a.25.25,0,0,1-.25-.2c0-.21.21-.21.29-.21h.85a.89.89,0,0,1,.64.23A.92.92,0,0,1,12.29,10.47Z"/><path class="cls-1" d="M10,27.39l-4.69-3a.43.43,0,0,0-.66.36v6.08a.42.42,0,0,0,.23.38.33.33,0,0,0,.2,0,.38.38,0,0,0,.23-.06l4.69-3a.45.45,0,0,0,.19-.37A.41.41,0,0,0,10,27.39ZM5.53,30v-4.5L9,27.76Z"/><path class="cls-1" d="M28.58,7.16l.43.26a.13.13,0,0,0,.18,0,.13.13,0,0,0,0-.17l-.43-.27a.14.14,0,0,0-.18,0A.15.15,0,0,0,28.58,7.16Z"/><path class="cls-1" d="M27.73,6.63l.43.26a.12.12,0,0,0,.17,0,.12.12,0,0,0,0-.17l-.43-.27a.13.13,0,0,0-.18,0A.14.14,0,0,0,27.73,6.63Z"/><path class="cls-1" d="M29.44,7.69l.43.26a.13.13,0,0,0,.18,0,.13.13,0,0,0,0-.17l-.43-.27a.15.15,0,0,0-.18,0A.14.14,0,0,0,29.44,7.69Z"/><path class="cls-1" d="M26.44,5.83a.12.12,0,0,0,.17,0,.13.13,0,0,0,0-.18l-.43-.26a.12.12,0,1,0-.13.21Z"/><path class="cls-1" d="M30.3,8.22l.43.26,0,0,0,0a.25.25,0,0,1,.05.24.13.13,0,0,0,.06.14h0a.13.13,0,0,0,.16-.09A.51.51,0,0,0,31,8.36a0,0,0,0,0,0,0l0,0a.1.1,0,0,0,0-.05L30.44,8a.14.14,0,0,0-.18.05A.13.13,0,0,0,30.3,8.22Z"/><path class="cls-1" d="M26.87,6.1l.43.26a.12.12,0,0,0,.17,0,.12.12,0,0,0,0-.17L27,5.88a.12.12,0,0,0-.17,0A.13.13,0,0,0,26.87,6.1Z"/><path class="cls-1" d="M24.68,6a.13.13,0,0,0,.17,0l.27-.42a.15.15,0,0,0,0-.18.13.13,0,0,0-.18,0l-.26.43A.13.13,0,0,0,24.68,6Z"/><path class="cls-1" d="M23,9.26A.26.26,0,0,1,23,9l0,0a.12.12,0,1,0-.21-.13l0,0h-.07a.41.41,0,0,0,0,.16.1.1,0,0,0,.05.06.11.11,0,0,0,.11,0A.11.11,0,0,0,23,9.26Z"/><path class="cls-1" d="M23,9.52a.12.12,0,0,0,0,.17l.06,0,.13-.22-.06,0A.13.13,0,0,0,23,9.52Z"/><path class="cls-1" d="M25.75,5.26a.13.13,0,0,0,0-.18h-.1a.46.46,0,0,0-.38,0,.12.12,0,0,0,0,.22.13.13,0,0,0,.12,0,.23.23,0,0,1,.24,0A.12.12,0,0,0,25.75,5.26Z"/><path class="cls-1" d="M24.15,6.89a.12.12,0,0,0,.17,0l.27-.43a.13.13,0,0,0-.05-.17.12.12,0,0,0-.17,0l-.26.43A.12.12,0,0,0,24.15,6.89Z"/><path class="cls-1" d="M23.62,7.75a.12.12,0,0,0,.17,0l.26-.43a.12.12,0,0,0-.21-.13l-.27.43A.13.13,0,0,0,23.62,7.75Z"/><path class="cls-1" d="M23.08,8.61a.13.13,0,0,0,.18,0l.26-.43A.12.12,0,0,0,23.31,8L23,8.44A.13.13,0,0,0,23.08,8.61Z"/><path class="cls-1" d="M27.47,10.84a.13.13,0,0,1,.12-.05l.25,0L27,10l-.26,1.11L27,11a.14.14,0,0,1,.11,0l0,0a.13.13,0,0,1,.05.07l.3.94.31-.08-.3-.93A.14.14,0,0,1,27.47,10.84Z"/><path class="cls-1" d="M31.19,9.66,26,6.47a.52.52,0,0,0-.7.17l-2.25,3.65a.49.49,0,0,0,.16.69l5.16,3.19A.5.5,0,0,0,29.1,14l2.26-3.65A.52.52,0,0,0,31.19,9.66Zm-3.64-.47a.12.12,0,0,1,.17,0,.13.13,0,0,1,.05.17l-.2.32a.14.14,0,0,1-.18,0,.14.14,0,0,1,0-.18Zm-1.17.61L26,9.65h0A.13.13,0,0,1,26,9.49a.12.12,0,0,1,.16-.07l.36.15a.13.13,0,0,1,.07.16A.12.12,0,0,1,26.38,9.8Zm.48-.41a.1.1,0,0,1-.09,0,.11.11,0,0,1-.06-.07l-.12-.53a.13.13,0,0,1,.09-.15.14.14,0,0,1,.16.1l.12.52A.13.13,0,0,1,26.86,9.39Zm1.08,2.71-.55.13a.11.11,0,0,1-.1,0,.13.13,0,0,1-.06-.07L27,11.26l-.36.25a.12.12,0,0,1-.14,0,.13.13,0,0,1-.05-.13l.38-1.65a.15.15,0,0,1,.09-.1.13.13,0,0,1,.12,0l1.3,1.24a.12.12,0,0,1,0,.14.11.11,0,0,1-.13.07l-.44,0,.28.87a.11.11,0,0,1,0,.1A.18.18,0,0,1,27.94,12.1Z"/></g></g></svg>